<svg width="1400" height="2566" viewBox="0 0 1400 2566" fill="none" xmlns="http://www.w3.org/2000/svg">
<path d="M-189 442.609C64.5434 740.989 201.212 1134.52 280.034 1456.45C345.74 1724.85 344.574 1834.64 414.344 2034.89C565.751 2469.41 855.789 2769.06 996.357 2395.64C1065.6 2211.7 1039.99 1978.59 1073.11 1537.3C1102.9 1140.33 1179.94 594.359 1395.03 1" stroke="white" stroke-opacity="0.24" stroke-miterlimit="10"/>
<path d="M-188.491 538.876C58.1223 795.311 193.424 1165.53 272.205 1466.81C338.491 1720.39 343.881 1821.8 417.989 2018.6C573.451 2431.45 845.834 2718.88 986.599 2370.46C1059.11 2191.01 1042.61 1961.89 1081.42 1521.9C1115.59 1134.53 1194.2 597.893 1405.58 9.85547" stroke="white" stroke-opacity="0.24" stroke-miterlimit="10"/>
<path d="M-187.986 635.129C51.6918 849.631 185.732 1196.63 264.384 1477.17C331.389 1716.18 343.064 1808.96 421.643 2002.31C580.818 2393.97 836.309 2669.37 976.859 2345.29C1052.79 2170.2 1045.13 1945.42 1089.75 1506.5C1128.15 1128.83 1208.47 601.466 1416.15 18.7764" stroke="white" stroke-opacity="0.24" stroke-miterlimit="10"/>
<path d="M-187.477 731.398C45.2661 903.969 178.177 1227.82 256.569 1487.62C324.378 1712.22 342.12 1796.23 425.321 1986.02C587.892 2357.03 827.199 2620.61 967.132 2320.11C1046.64 2149.4 1047.54 1929.13 1098.09 1491.1C1140.55 1123.22 1222.76 605.042 1426.71 27.6602" stroke="white" stroke-opacity="0.24" stroke-miterlimit="10"/>
<path d="M-186.972 827.655C38.8589 958.266 170.774 1259.02 248.749 1497.92C317.481 1708.47 341.093 1783.61 428.948 1969.73C594.632 2320.64 818.415 2572.66 957.361 2294.94C1040.61 2128.55 1049.76 1912.96 1106.39 1475.7C1152.76 1117.63 1237 608.604 1437.24 36.6113" stroke="white" stroke-opacity="0.24" stroke-miterlimit="10"/>
<path d="M-186.463 923.907C32.4145 1012.59 163.543 1290.23 240.933 1508.28C310.735 1704.95 339.906 1771.18 432.606 1953.43C601.152 2284.84 809.996 2525.51 947.616 2269.77C1034.75 2107.82 1051.85 1896.86 1114.72 1460.29C1164.85 1112.03 1251.27 612.176 1447.8 45.4248" stroke="white" stroke-opacity="0.24" stroke-miterlimit="10"/>
<path d="M-185.958 1020.17C25.9845 1066.85 156.509 1321.31 233.114 1518.64C304.141 1701.62 338.637 1758.97 436.257 1937.15C607.458 2249.63 801.874 2479.22 937.867 2244.59C1029.04 2087.29 1053.83 1880.76 1123.04 1444.9C1176.8 1106.38 1265.55 615.754 1458.36 54.3242" stroke="white" stroke-opacity="0.24" stroke-miterlimit="10"/>
<path d="M-185.428 1116.43C19.5803 1121.22 149.721 1352.23 225.32 1529.01C297.755 1698.39 337.321 1747.02 439.932 1920.87C613.603 2215.02 794.053 2433.76 928.144 2219.41C1023.49 2067 1055.66 1864.64 1131.39 1429.5C1188.6 1100.65 1279.81 619.367 1468.92 63.2051" stroke="white" stroke-opacity="0.24" stroke-miterlimit="10"/>
<path d="M-184.94 1212.68C13.1326 1175.54 143.127 1382.87 217.482 1539.38C291.54 1695.21 335.847 1735.43 443.569 1904.56C619.571 2180.99 786.43 2389.16 918.377 2194.23C1018.04 2047.05 1057.29 1848.37 1139.69 1414.09C1200.27 1094.81 1294.07 622.884 1479.5 72.084" stroke="white" stroke-opacity="0.24" stroke-miterlimit="10"/>
<path d="M-184.436 1308.9C6.70717 1229.82 136.793 1413.06 209.663 1549.7C285.517 1691.93 334.336 1723.99 447.22 1888.24C625.407 2147.49 778.999 2345.34 908.628 2169.02C1012.7 2027.47 1058.8 1831.92 1148.01 1398.65C1211.82 1088.78 1308.34 626.422 1490.03 80.9297" stroke="white" stroke-opacity="0.24" stroke-miterlimit="10"/>
<path d="M-183.927 1405.21C0.303868 1284.18 130.71 1442.83 201.851 1560.1C279.74 1688.52 332.774 1713.04 450.878 1871.98C631.168 2114.61 771.746 2302.4 898.883 2143.89C1007.49 2008.48 1060.16 1815.31 1156.34 1383.28C1223.26 1082.67 1322.61 630.034 1500.59 89.877" stroke="white" stroke-opacity="0.24" stroke-miterlimit="10"/>
<path d="M-183.422 1501.46C-6.14905 1338.49 124.856 1471.92 194.031 1570.47C274.179 1684.66 331.176 1702.43 454.528 1855.7C636.857 2082.22 764.621 2260.19 889.134 2118.71C1002.37 1990.04 1061.37 1798.4 1164.66 1367.89C1234.61 1076.34 1336.88 633.595 1511.15 98.7461" stroke="white" stroke-opacity="0.24" stroke-miterlimit="10"/>
<path d="M-182.913 1597.74C-12.5747 1392.82 119.207 1500.27 186.216 1580.85C268.832 1680.2 329.505 1692.18 458.187 1839.42C642.505 2050.32 757.592 2218.73 879.394 2093.53C997.338 1972.3 1062.46 1781.19 1172.99 1352.49C1245.87 1069.81 1351.15 637.176 1521.71 107.635" stroke="white" stroke-opacity="0.24" stroke-miterlimit="10"/>
<path d="M-182.404 1693.99C-18.9963 1447.14 113.727 1527.78 178.4 1591.21C263.672 1674.85 327.824 1682.3 461.832 1823.12C648.111 2018.86 750.617 2177.89 869.64 2068.36C992.398 1955.33 1063.42 1763.6 1181.31 1337.08C1257.06 1063.04 1365.42 640.708 1532.27 116.556" stroke="white" stroke-opacity="0.24" stroke-miterlimit="10"/>
<path d="M-181.899 1790.24C-25.4263 1501.45 108.353 1554.4 170.562 1601.57C258.627 1668.34 326.102 1672.8 465.477 1806.83C653.708 1987.83 743.666 2137.83 859.882 2043.18C987.495 1939.24 1064.25 1745.61 1189.62 1321.64C1268.17 1056.01 1379.67 644.265 1542.81 125.354" stroke="white" stroke-opacity="0.24" stroke-miterlimit="10"/>
<path d="M-181.39 1886.51C-31.8291 1555.77 103.03 1580.11 162.765 1611.94C253.692 1660.38 324.408 1663.7 469.15 1790.54C659.324 1957.25 736.746 2098.35 850.156 2018.02C982.66 1924.13 1065.02 1727.26 1197.96 1306.29C1279.27 1048.83 1393.96 647.883 1553.38 134.294" stroke="white" stroke-opacity="0.24" stroke-miterlimit="10"/>
<path d="M-180.859 1982.76C-38.2566 1610.09 98.3209 1653.17 154.971 1622.31C247.63 1571.82 322.717 1654.97 472.83 1774.25C664.97 1926.95 729.779 2059.44 840.409 1992.83C977.823 1910.14 1065.67 1708.36 1206.29 1290.88C1290.32 1041.39 1408.22 651.454 1563.94 143.227" stroke="white" stroke-opacity="0.24" stroke-miterlimit="10"/>
<path d="M-180.376 2079.02C-44.7036 1664.42 93.5014 1668.78 147.129 1632.67C241.124 1569.4 320.978 1646.61 476.459 1757.96C670.632 1897.07 722.729 2021.11 830.662 1967.65C972.972 1897.26 1066.24 1689.06 1214.61 1275.45C1301.34 1033.68 1422.49 654.988 1574.5 152.028" stroke="white" stroke-opacity="0.24" stroke-miterlimit="10"/>
<path d="M-179.863 2175.29C-51.1254 1718.73 88.0579 1682.85 139.318 1643.04C235.004 1568.74 319.279 1638.62 480.122 1741.73C676.334 1867.45 715.599 1983.22 820.921 1942.55C968.091 1885.72 1066.76 1669.35 1222.94 1260.14C1312.36 1025.87 1436.77 658.633 1585.06 161.008" stroke="white" stroke-opacity="0.24" stroke-miterlimit="10"/>
<path d="M-179.358 2271.54C-57.5554 1773.05 80.325 1675.37 131.503 1653.4C232.308 1610.23 317.599 1630.97 483.776 1725.42C682.087 1838.08 708.337 1945.71 811.177 1917.34C963.123 1875.38 1067.22 1649 1231.27 1244.67C1323.37 1017.67 1451.04 662.165 1595.62 169.821" stroke="white" stroke-opacity="0.24" stroke-miterlimit="10"/>
<path d="M-178.849 2367.8C-63.9811 1827.37 73.9542 1698.02 123.683 1663.78C225.924 1593.4 315.932 1623.66 487.426 1709.13C687.881 1808.98 700.914 1908.62 801.427 1892.17C958.051 1866.53 1067.64 1628.36 1239.59 1229.31C1334.38 1009.34 1465.3 665.769 1606.18 178.747" stroke="white" stroke-opacity="0.24" stroke-miterlimit="10"/>
<path d="M-178.344 2464.07C-70.407 1881.7 67.1442 1720.69 115.862 1674.14C218.949 1575.61 314.292 1616.67 491.08 1692.82C693.739 1780.09 693.314 1871.83 791.683 1866.97C952.827 1858.97 1068.02 1607.15 1247.92 1213.89C1345.39 1000.81 1479.57 669.305 1616.73 187.604" stroke="white" stroke-opacity="0.24" stroke-miterlimit="10"/>
</svg>
