<svg width="1200" height="400" viewBox="0 0 1200 400" fill="none" xmlns="http://www.w3.org/2000/svg">
<g clip-path="url(#clip0_527_1822)">
<path fill-rule="evenodd" clip-rule="evenodd" d="M1200 16.5296V199.722H0V20.929L71.875 14.9458L80 11.9542L118.75 14.0659L156.563 17.0575L168.75 20.0491L203.75 13.186L230 14.0659L300.625 6.8508L332.187 14.7698L352.813 11.7782L376.875 14.2419L414.063 11.7782H450L487.344 14.3299L504.687 20.0491L513.75 22.5128L530 24.4486L564.375 24.9765L600.625 20.7531L675.547 20.2251L712.813 17.5855L730 23.0407L752.5 20.2251L825.31 23.0407L857.5 21.9849L871.564 18.1134L865.31 8.43462L893.746 8.61058L911.095 6.58685L935.627 7.0268L954.063 4.21114H969.064L981.564 5.26702L998.127 8.25862H1003.75L1015.63 2.27539L1025 5.26702L1042.81 3.33125L1049.69 5.61898L1057.81 3.33125L1070 8.25862L1082.11 6.63082L1091.87 7.0268L1102.19 11.0743L1117.81 13.01L1158.44 16.3536L1178.13 14.9458L1200 16.5296ZM0 382.918V199.725H1200V378.518L1128.13 384.501L1120 387.493L1081.25 385.381L1043.44 382.389L1031.25 379.398L996.254 386.261L970 385.381L899.373 392.596L867.81 384.677L847.19 387.669L823.127 385.205L785.937 387.669H750L712.656 385.117L695.313 379.398L686.25 376.934L670 374.999L635.625 374.471L599.375 378.694L524.453 379.222L487.187 381.862L470 376.406L447.5 379.222L374.687 376.406L342.5 377.462L328.437 381.334L334.687 391.012L306.25 390.836L288.906 392.86L264.375 392.42L245.937 395.236H230.937L218.437 394.18L201.875 391.189H196.25L184.375 397.172L175 394.18L157.187 396.116L150.313 393.828L142.187 396.116L130 391.189L117.89 392.816L108.125 392.42L97.8127 388.373L82.1873 386.437L41.5625 383.093L21.875 384.501L0 382.918Z" fill="#4F3DFE"/>
<path d="M13.1318 384.111L0 383.583V379.184L13.1318 379.36C16.5711 382.175 25.6383 382.879 28.765 382.879C31.8916 382.879 35.3309 380.767 36.2689 380.416C37.2069 380.064 49.0881 380.064 53.778 380.416C58.4679 380.767 60.0313 383.055 60.6566 383.055C61.2819 383.055 70.3491 382.351 72.2251 382.175C73.7259 382.034 77.853 382.937 79.7294 383.407C81.2302 386.081 85.1484 385.812 86.9206 385.343C98.1762 384.111 100.365 385.87 104.742 389.038C109.119 392.206 111.621 391.678 111.933 391.678C116.436 390.129 123.189 388.921 126.003 388.51C134.133 387.982 134.133 394.141 141.949 394.669C144.305 394.828 148.306 392.616 150.078 391.326C150.391 392.557 158.207 396.605 162.272 395.197C165.524 394.071 171.964 392.264 174.779 391.502C176.342 394.317 181.344 396.077 183.846 396.077C186.347 396.077 191.975 393.086 191.975 392.03C191.975 390.974 196.352 388.158 196.352 388.686C196.352 389.108 199.479 389.566 201.042 389.742C201.042 389.918 202.043 390.059 206.044 389.214C209.797 388.862 218.552 393.086 221.052 393.086C223.054 393.086 225.013 392.382 225.743 392.03C228.994 395.127 231.683 394.611 232.621 393.965C233.038 393.555 235.06 392.487 239.813 391.502C245.753 390.27 244.815 394.669 246.379 393.965C247.941 393.261 255.133 391.326 260.761 390.27C266.389 389.214 270.453 391.502 277.957 392.03C285.461 392.557 294.216 389.038 299.844 388.158C305.471 387.278 316.728 389.742 323.606 390.27C330.485 390.798 333.611 389.39 334.237 389.742C334.737 390.023 338.197 391.619 339.864 392.382C333.111 395.197 309.744 393.555 298.906 392.382C293.152 394.494 278.583 395.373 272.017 395.549C263.512 392.311 251.381 395.608 246.379 397.661C243.627 394.141 237.52 395.842 234.81 397.133C229.307 399.526 226.889 397.075 226.368 395.549C223.617 397.52 221.052 397.075 220.114 396.605C209.484 393.614 205.733 392.382 203.856 393.086C201.98 393.79 200.417 393.614 199.479 393.614C198.729 393.614 197.082 392.792 196.352 392.382C195.831 392.323 194.664 392.487 194.164 393.614C193.664 394.74 189.578 397.602 187.598 398.893C182.595 401.286 176.967 397.192 174.779 394.845L169.151 396.605C162.898 398.858 159.667 399.069 158.833 398.893C156.081 399.033 151.641 396.253 149.766 394.845C145.701 397.837 138.197 400.125 133.507 394.845C128.817 389.566 116.31 394.845 115.06 394.845C110.558 396.535 108.39 395.549 107.869 394.845C97.8635 389.073 92.6524 388.686 91.2976 389.214C80.5421 390.622 79.1037 388.628 79.7294 387.454L71.5998 386.574C70.099 386.997 63.679 387.337 60.6566 387.454C55.4039 383.513 42.001 384.287 35.9562 385.167C27.2017 389.531 17.0922 386.281 13.1318 384.111Z" fill="#4F3DFE"/>
<path d="M325.794 379.358C325.482 379.71 329.234 382.35 329.234 382.526C337.989 379.71 348.515 379.006 352.683 379.006C362.939 375.487 370.506 377.54 373.007 379.006C383.012 376.191 383.95 380.766 399.583 380.238C412.09 382.068 422.303 380.884 425.847 380.062C430.349 383.069 438.144 382.723 441.48 382.174C461.74 376.402 469.098 377.775 470.245 379.183C476.498 377.423 482.126 383.406 486.19 384.11C490.255 384.814 492.131 381.646 492.444 381.646C492.756 381.646 496.821 382.526 503.075 383.23C508.077 383.793 519.541 382.408 524.648 381.646C531.402 382.913 551.016 382.174 559.979 381.646C567.171 383.054 562.167 383.406 579.677 381.118C597.186 378.83 593.434 381.822 599.687 380.59C604.69 379.605 614.279 379.945 618.447 380.238C619.594 379.769 622.386 378.795 624.387 378.654C626.389 378.513 628.14 378.948 628.765 379.183C628.765 378.479 631.475 377.364 632.829 376.895C648.775 375.311 662.532 378.126 663.158 378.126C663.783 378.126 663.158 378.654 667.848 377.423C672.538 376.191 675.352 379.183 675.664 379.183C685.044 376.543 687.545 379.886 689.421 380.766C691.298 381.646 700.365 382.702 704.429 383.758C708.494 384.814 714.435 388.509 717.874 389.213C720.625 389.776 735.071 389.33 741.949 389.037C744.763 390.973 763.523 390.093 766.962 389.565C770.402 389.037 774.153 390.797 775.091 390.269C776.029 389.741 789.474 390.093 803.857 387.629C815.365 385.659 830.746 386.808 837 387.629C845.754 393.261 855.762 388.861 859.198 387.277C861.952 386.01 865.349 386.163 866.698 386.397C868.476 386.808 872.325 387.629 873.579 387.629C875.143 387.629 881.087 390.621 882.96 390.797C884.46 390.938 885.881 390.504 886.397 390.269C890.46 393.436 892.968 393.612 899.222 395.196C904.222 396.463 916.73 392.439 922.357 390.269C927.984 392.029 934.238 390.445 939.865 389.917C944.365 389.494 947.159 389.741 947.992 389.917C952.476 388.803 964.317 386.996 975.817 388.685C987.325 390.375 996.46 388.333 999.579 387.101C1010.52 387.101 1022.72 382.526 1026.16 381.822C1029.6 381.118 1037.73 381.47 1037.73 381.822C1037.73 382.174 1041.17 385.518 1041.79 385.518C1042.29 385.518 1043.04 385.048 1043.36 384.814C1048.36 385.94 1062.33 387.277 1068.68 387.805L1099.63 387.981C1105.63 386.573 1116.31 388.568 1120.9 389.741H1124.96V389.213C1117.14 383.406 1147.79 387.629 1149.35 387.629C1150.6 387.629 1153.62 386.104 1154.98 385.342L1153.72 384.989C1153.1 384.814 1152.16 381.998 1151.54 382.526C1151.04 382.948 1148.83 383.054 1147.79 383.054C1120.9 379.886 1124.02 382.526 1124.02 383.406C1124.02 384.286 1124.96 385.518 1123.4 385.693C1122.15 385.834 1111.41 384.11 1106.2 383.23C1104.33 383.582 1100.01 384.11 1097.76 383.406C1094.94 382.526 1069.31 384.11 1068.06 383.406C1066.81 382.702 1051.48 381.822 1047.73 381.294C1044.73 380.872 1043.36 380.297 1043.04 380.062C1042.94 380.297 1042.54 380.801 1041.79 380.942C1040.86 381.118 1039.29 378.479 1037.73 376.895C1036.48 375.628 1029.29 376.367 1025.85 376.895C1020.84 379.71 1000.52 382.702 998.96 383.054C997.397 383.406 994.27 385.693 988.643 384.989C983.016 384.286 964.563 384.11 962.69 383.934C960.81 383.758 950.81 385.518 947.056 386.046C943.302 386.573 946.119 386.222 941.429 385.518C936.738 384.814 933.611 386.926 930.175 387.101C927.421 387.242 923.817 386.456 922.357 386.046C912.976 390.269 909.849 389.741 902.968 391.501C896.095 393.261 886.397 385.693 886.397 385.869C886.397 386.046 882.96 386.573 881.087 386.397C879.206 386.222 874.206 383.582 873.579 383.406C872.952 383.23 872.952 383.406 868.889 382.174C865.635 381.188 862.738 381.764 861.698 382.174C859.405 383.288 853.635 385.693 848.881 386.397C842.936 387.277 838.873 384.286 837 383.406C835.119 382.526 825.429 382.702 824.802 382.702C817.548 381.435 810.524 382.174 807.921 382.702C799.667 384.11 781.553 385.518 773.528 386.046C771.964 384.286 754.143 387.101 747.264 386.046C741.761 385.201 739.76 384.755 739.448 384.638C730.067 385.869 720.375 385.166 717.248 384.638C714.122 384.11 707.556 378.479 704.429 378.83C701.928 379.112 692.756 376.602 688.483 375.311C683.481 370.736 679.104 373.375 678.479 373.199C677.853 373.023 675.977 374.431 675.352 373.727C674.726 373.023 671.6 371.967 669.098 372.319C666.597 372.671 663.783 372.671 663.158 372.671C658.468 370.912 642.835 371.616 639.082 371.616H633.142C630.891 371.616 629.286 373.258 628.765 374.079C627.014 372.249 621.574 374.138 619.072 375.311C615.821 374.185 610.213 374.842 607.817 375.311C605.211 375.663 598.875 376.156 594.372 375.311C588.744 374.255 581.866 375.839 579.677 376.367C577.488 376.895 568.109 377.951 563.731 377.775C559.354 377.599 560.605 376.191 559.041 376.719C557.478 377.247 532.778 377.247 528.713 376.719C525.461 376.297 520.479 376.895 518.395 377.247C506.389 379.499 495.883 377.833 492.131 376.719C491.131 378.268 488.796 379.006 487.754 379.183C484.627 380.239 478.374 375.839 476.186 374.431C473.997 373.023 472.746 373.551 472.121 373.903C471.621 374.185 470.036 374.021 469.307 373.903C463.367 371.088 448.046 375.311 440.855 377.423C433.663 379.535 426.785 375.311 425.847 375.311C424.909 375.311 418.343 376.895 416.154 376.719C414.403 376.578 404.377 375.722 399.583 375.311C398.54 375.781 394.455 376.226 386.452 374.255C378.447 372.284 374.57 373.317 373.632 374.079C369.63 371.826 365.503 371.615 363.94 371.792C360.813 371.088 352.996 374.079 352.059 374.079C344.555 373.023 326.107 379.006 325.794 379.358Z" fill="#4F3DFE"/>
<path d="M1154.98 380.766C1155.6 381.294 1154.35 381.294 1154.04 381.47H1164.98C1167.59 381.998 1173.36 382.702 1175.61 381.294C1177.87 379.886 1180.1 380.825 1180.93 381.47C1181.67 381.047 1193.95 380.59 1200 380.414V375.487C1198.44 374.959 1180.93 376.894 1180.3 376.367C1179.8 375.944 1178.84 375.721 1178.43 375.663C1177.38 376.073 1174.8 376.965 1172.8 377.246C1170.29 377.598 1167.17 377.246 1165.6 376.718C1164.05 376.191 1152.79 376.718 1151.85 377.246C1150.91 377.774 1152.79 378.478 1154.04 380.062C1155.29 381.646 1154.35 380.238 1154.98 380.766Z" fill="#4F3DFE"/>
<path d="M1186.86 15.508L1200 16.036V20.435L1186.86 20.259C1183.43 17.4434 1174.37 16.7395 1171.24 16.7395C1168.11 16.7395 1164.67 18.8512 1163.73 19.2031C1162.79 19.5551 1150.91 19.5551 1146.22 19.2031C1141.53 18.8512 1139.97 16.5635 1139.34 16.5635C1138.71 16.5635 1129.65 17.2678 1127.78 17.4438C1126.28 17.5846 1122.15 16.6812 1120.27 16.2119C1118.77 13.5371 1114.85 13.8069 1113.08 14.2762C1101.83 15.508 1099.63 13.7482 1095.26 10.5806C1090.88 7.41303 1088.38 7.94098 1088.06 7.94098C1083.56 9.48959 1076.81 10.6979 1074 11.1086C1065.87 11.6365 1065.87 5.4773 1058.05 4.94934C1055.7 4.79023 1051.69 7.00244 1049.92 8.29294C1049.61 7.06107 1041.79 3.01359 1037.73 4.42141C1034.48 5.54769 1028.03 7.35439 1025.22 8.11694C1023.66 5.3013 1018.66 3.54152 1016.15 3.54152C1013.65 3.54152 1008.02 6.53316 1008.02 7.58903C1008.02 8.64489 1003.65 11.4605 1003.65 10.9326C1003.65 10.5102 1000.52 10.0527 998.96 9.87671C998.96 9.70076 997.96 9.55998 993.952 10.4047C990.206 10.7566 981.452 6.53316 978.944 6.53316C976.944 6.53316 974.984 7.23707 974.254 7.58903C971.008 4.49182 968.317 5.00802 967.381 5.65325C966.96 6.06389 964.936 7.13146 960.19 8.11694C954.246 9.3488 955.183 4.94934 953.619 5.65325C952.056 6.35716 944.865 8.29294 939.238 9.3488C933.611 10.4047 929.548 8.11694 922.04 7.58903C914.54 7.06107 905.786 10.5806 900.159 11.4605C894.532 12.3404 883.27 9.87671 876.397 9.3488C869.516 8.82085 866.389 10.2287 865.762 9.87671C865.262 9.59515 861.802 7.99962 860.135 7.23707C866.889 4.42141 890.254 6.06389 901.095 7.23707C906.849 5.12534 921.421 4.24543 927.984 4.06946C936.484 7.30746 948.619 4.0108 953.619 1.95773C956.373 5.4773 962.484 3.77616 965.19 2.48566C970.69 0.0923613 973.111 2.54432 973.635 4.06946C976.381 2.09851 978.944 2.54432 979.889 3.01359C990.516 6.00521 994.27 7.23707 996.143 6.53316C998.016 5.82925 999.579 6.00521 1000.52 6.00521C1001.27 6.00521 1002.92 6.82644 1003.65 7.23707C1004.17 7.29571 1005.33 7.13146 1005.83 6.00521C1006.33 4.87895 1010.42 2.01638 1012.4 0.725881C1017.4 -1.66741 1023.03 2.427 1025.22 4.77339L1030.85 3.01359C1037.1 0.761077 1040.33 0.549904 1041.17 0.725881C1043.92 0.585099 1048.36 3.36555 1050.24 4.77339C1054.3 1.78175 1061.8 -0.505962 1066.49 4.77339C1071.18 10.0527 1083.69 4.77339 1084.94 4.77339C1089.44 3.08398 1091.61 4.06946 1092.13 4.77339C1102.13 10.5455 1107.35 10.9326 1108.71 10.4047C1119.46 8.99685 1120.9 10.9913 1120.27 12.1644L1128.4 13.0443C1129.9 12.622 1136.32 12.2818 1139.34 12.1644C1144.6 16.1063 1158 15.332 1164.05 14.4521C1172.8 10.0879 1182.9 13.3376 1186.86 15.508Z" fill="#4F3DFE"/>
<path d="M874.206 20.2594C874.516 19.9075 870.77 17.2678 870.77 17.0918C862.008 19.9076 851.484 20.6114 847.318 20.6112C837.064 24.1308 829.492 22.0777 826.992 20.6112C816.984 23.4269 816.048 18.8514 800.421 19.3794C787.91 17.5492 777.697 18.7341 774.153 19.5554C769.651 16.5481 761.855 16.8945 758.52 17.4437C738.26 23.2157 730.902 21.843 729.755 20.4351C723.502 22.1947 717.874 16.2118 713.81 15.5079C709.745 14.804 707.869 17.9716 707.556 17.9716C707.244 17.9716 703.179 17.0917 696.925 16.3878C691.923 15.8247 680.459 17.209 675.352 17.9716C668.598 16.7045 648.984 17.4437 640.021 17.9716C632.829 16.5638 637.833 16.2118 620.323 18.4995C602.814 20.7872 606.566 17.7956 600.313 19.0274C595.31 20.0129 585.721 19.6727 581.553 19.3794C580.406 19.8487 577.614 20.8224 575.613 20.9632C573.611 21.104 571.86 20.6699 571.235 20.4353C571.235 21.1392 565.244 20.4939 563.889 20.9632C547.943 22.547 542.689 20.4353 542.064 20.4353C541.438 20.4353 536.842 20.9632 532.152 22.195C527.462 23.4269 524.648 20.4353 524.336 20.4353C514.956 23.075 513.392 18.8514 511.517 17.9716C509.641 17.0917 499.635 16.9157 495.571 15.8598C491.506 14.804 485.565 11.1084 482.126 10.4045C479.375 9.84139 464.929 10.2872 458.051 10.5805C455.237 8.64474 436.477 9.52465 433.038 10.0526C429.598 10.5805 425.847 8.82074 424.909 9.34865C423.971 9.8766 410.526 9.52465 396.144 11.9883C384.638 13.9593 369.255 12.8096 363.002 11.9883C354.247 6.35705 344.242 10.7565 340.802 12.3403C338.051 13.6073 334.653 13.4548 333.298 13.2202C331.527 12.8096 327.671 11.9883 326.42 11.9883C324.857 11.9883 318.916 8.99669 317.04 8.82074C315.54 8.67996 314.122 9.11401 313.601 9.34865C309.536 6.18105 307.035 6.0051 300.782 4.4213C295.779 3.15426 283.272 7.17828 277.644 9.34865C272.017 7.58887 265.763 9.17269 260.136 9.7006C255.633 10.123 252.84 9.87661 252.006 9.7006C247.525 10.8152 235.686 12.6219 224.179 10.9325C212.673 9.24309 203.544 11.2844 200.417 12.5163C189.474 12.5163 177.28 17.0917 173.84 17.7956C170.402 18.4995 162.272 18.1476 162.272 17.7956C162.272 17.4437 158.833 14.1001 158.207 14.1001C157.707 14.1001 156.957 14.5693 156.644 14.804C151.641 13.6777 137.676 12.3403 131.318 11.8123L100.365 11.6364C94.3619 13.0442 83.6896 11.0498 79.1037 9.87661H75.0391V10.4045C82.8555 16.2118 52.2146 11.9883 50.6514 11.9883C49.4007 11.9883 46.3784 13.5135 45.0234 14.2761L46.2741 14.628C46.8995 14.804 47.8373 17.6196 48.4627 17.0917C48.963 16.6693 51.1725 16.5638 52.2146 16.5638C79.1037 19.7314 75.9771 17.0917 75.9771 16.2118C75.9771 15.3319 75.0391 14.1001 76.6023 13.9241C77.853 13.7833 88.588 15.5079 93.7992 16.3878C95.6746 16.0358 99.9896 15.5079 102.24 16.2118C105.055 17.0917 130.693 15.5079 131.944 16.2118C133.194 16.9157 148.515 17.7956 152.267 18.3235C155.268 18.7459 156.644 19.3208 156.957 19.5554C157.061 19.3208 157.457 18.8163 158.207 18.6755C159.145 18.4995 160.709 21.1392 162.272 22.723C163.523 23.99 170.714 23.2509 174.153 22.723C179.156 19.9073 199.479 16.9157 201.042 16.5638C202.606 16.2118 205.733 13.9241 211.36 14.628C216.988 15.3319 235.435 15.5079 237.311 15.6839C239.187 15.8598 249.192 14.1001 252.944 13.5721C256.696 13.0442 253.883 13.3962 258.572 14.1001C263.262 14.804 266.389 12.6922 269.828 12.5163C272.579 12.3755 276.186 13.1615 277.644 13.5721C287.025 9.34865 290.151 9.87661 297.029 8.11683C303.908 6.35705 313.601 13.9241 313.601 13.7481C313.601 13.5721 317.04 13.0442 318.916 13.2202C320.792 13.3962 325.794 16.0358 326.42 16.2118C327.045 16.3878 327.045 16.2118 331.11 17.4437C334.362 18.4291 337.259 17.8543 338.302 17.4437C340.594 16.3291 346.368 13.9241 351.121 13.2202C357.061 12.3403 361.125 15.3319 363.002 16.2118C364.878 17.0917 374.57 16.9157 375.195 16.9157C382.449 18.1828 389.474 17.4437 392.079 16.9157C400.333 15.5079 418.447 14.1001 426.472 13.5721C428.036 15.3319 445.857 12.5163 452.736 13.5721C458.239 14.4169 460.24 14.8627 460.552 14.9799C469.933 13.7481 479.625 14.452 482.752 14.9799C485.878 15.5079 492.444 21.1392 495.571 20.7872C498.072 20.5057 507.244 23.0161 511.517 24.3066C516.519 28.8818 520.896 26.2425 521.521 26.4185C522.147 26.5945 524.023 25.1866 524.648 25.8906C525.274 26.5945 528.4 27.6504 530.902 27.2984C533.403 26.9465 536.217 26.9462 536.842 26.9462C541.532 28.706 557.165 28.0021 560.917 28.0021H566.858C569.109 28.0021 570.714 26.3596 571.235 25.5384C572.986 27.3686 578.426 25.4798 580.928 24.3066C584.179 25.4328 589.786 24.7759 592.183 24.3066C594.789 23.9546 601.125 23.4619 605.628 24.3066C611.256 25.3625 618.134 23.7786 620.323 23.2507C622.512 22.7228 631.891 21.6669 636.269 21.8429C640.646 22.0189 639.395 23.4267 640.959 22.8988C642.522 22.3708 667.222 22.3708 671.287 22.8988C674.539 23.3211 679.521 22.7228 681.605 22.3708C693.611 20.1183 704.117 21.7842 707.869 22.8988C708.869 21.3502 711.204 20.611 712.246 20.4351C715.373 19.3792 721.626 23.7786 723.814 25.1865C726.003 26.5943 727.254 26.0664 727.879 25.7144C728.379 25.4328 729.964 25.5971 730.693 25.7144C736.633 28.5301 751.954 24.3066 759.145 22.1949C766.337 20.0831 773.215 24.3066 774.153 24.3066C775.091 24.3066 781.657 22.7228 783.846 22.8988C785.597 23.0396 795.619 23.896 800.421 24.3066C801.46 23.8373 805.548 23.3915 813.548 25.3625C821.556 27.3334 825.429 26.3012 826.365 25.5388C830.373 27.7916 834.5 28.0023 836.064 27.8261C839.19 28.53 847 25.5388 847.945 25.5388C855.445 26.5946 873.889 20.6114 874.206 20.2594Z" fill="#4F3DFE"/>
<path d="M45.0235 18.8508C44.3982 18.3228 45.6489 18.3228 45.9615 18.1468H35.0183C32.4128 17.6189 26.6388 16.915 24.3877 18.3228C22.1366 19.7307 19.9063 18.7921 19.0725 18.1468C18.3221 18.5692 6.04481 19.0268 0 19.2028V24.1301C1.56328 24.658 19.0724 22.7223 19.6978 23.2502C20.1981 23.6726 21.1569 23.8955 21.5738 23.9541C22.616 23.5435 25.2007 22.6519 27.2017 22.3703C29.703 22.0184 32.8297 22.3703 34.3929 22.8983C35.9562 23.4262 47.2121 22.8983 48.1502 22.3703C49.0882 21.8424 47.2121 21.1385 45.9615 19.5547C44.7109 17.9709 45.6489 19.3787 45.0235 18.8508Z" fill="#4F3DFE"/>
</g>
<defs>
<clipPath id="clip0_527_1822">
<rect width="1200" height="400" fill="white"/>
</clipPath>
</defs>
</svg>
