<svg width="1440" height="566" viewBox="0 0 1440 566" fill="none" xmlns="http://www.w3.org/2000/svg">
<path d="M-35.6797 1C288.482 29.9797 738.002 359.36 696.518 473.895C669.316 548.979 350.617 547.293 263.547 560.834C144.808 579.276 369.636 510.238 415.427 430.426C469.832 335.583 387.25 86.2529 649.231 130.091C877.867 168.371 927.376 292.351 1091.27 289.479C1239.5 286.845 1354.97 182.781 1429.03 95.8425" stroke="black" stroke-opacity="0.3" stroke-miterlimit="10"/>
<path d="M-35.707 8.59961C274.854 40.9119 707.304 359.899 672.734 469.64C650.066 541.536 348.232 539.138 267.668 551.31C155.979 568.157 371.218 501.807 416.624 425.235C471.028 333.422 395.95 94.8141 648.864 137.085C874.485 174.693 920.027 301.558 1085.39 301.742C1233.9 301.584 1353.93 199.773 1431.25 114.692" stroke="black" stroke-opacity="0.3" stroke-miterlimit="10"/>
<path d="M-35.7344 16.1602C261.225 51.8051 676.606 360.373 648.973 465.345C630.838 534.053 345.847 530.944 271.789 541.746C167.128 556.947 372.8 493.337 417.82 419.992C472.225 331.209 404.673 103.349 648.497 144.039C871.103 180.989 912.677 311.068 1079.54 313.966C1228.29 316.6 1352.88 216.739 1433.49 133.501" stroke="black" stroke-opacity="0.3" stroke-miterlimit="10"/>
<path d="M-35.7344 23.7754C247.624 62.7662 645.935 360.862 625.216 461.105C611.615 526.586 343.467 522.805 275.914 532.237C178.235 545.699 374.41 484.868 419.022 414.764C473.585 328.997 413.4 111.887 648.157 150.983C867.725 187.287 905.287 320.448 1073.65 326.178C1222.65 331.302 1351.81 233.72 1435.71 152.3" stroke="black" stroke-opacity="0.3" stroke-miterlimit="10"/>
<path d="M-35.75 31.3613C234.143 73.6848 615.249 361.281 601.466 456.835C592.399 519.076 341.117 514.623 280.07 522.619C189.395 534.474 376.049 476.41 420.23 409.533C474.884 326.796 422.134 120.434 647.801 157.937C864.355 193.582 897.927 329.68 1067.83 338.401C1217.03 346.054 1350.82 250.685 1437.96 171.109" stroke="black" stroke-opacity="0.3" stroke-miterlimit="10"/>
<path d="M-35.7734 38.9492C220.564 84.6185 584.555 361.677 577.686 452.568C573.152 511.528 338.758 506.444 284.195 513.07C200.593 523.213 377.726 467.94 421.431 404.304C476.198 324.583 430.861 128.997 647.46 164.905C860.954 199.905 890.536 338.981 1061.96 350.639C1211.41 360.808 1349.85 267.651 1440.21 189.933" stroke="black" stroke-opacity="0.3" stroke-miterlimit="10"/>
<path d="M-35.7734 46.5508C206.985 95.5527 553.839 361.876 553.929 448.314C553.929 503.942 336.31 498.238 288.32 503.507C211.746 511.898 379.403 459.485 422.632 399.088C477.536 322.371 439.566 137.521 647.052 171.875C857.531 206.202 883.078 348.255 1056.06 362.877C1205.68 375.523 1348.69 284.671 1442.4 208.758" stroke="black" stroke-opacity="0.3" stroke-miterlimit="10"/>
<path d="M-35.793 54.1387C193.387 106.473 523.08 362.074 530.176 444.047C534.709 496.316 334.092 490.019 292.472 493.958C222.902 500.544 381.152 451.028 423.95 393.846C479.035 320.08 448.296 146.307 646.851 178.817C854.179 212.763 875.805 357.49 1050.35 375.088C1200.26 390.211 1347.81 301.638 1444.79 227.556" stroke="black" stroke-opacity="0.3" stroke-miterlimit="10"/>
<path d="M-35.8203 61.7266C179.804 117.407 492.224 362.193 506.392 439.779C515.323 488.636 331.843 481.787 296.593 484.395C234.096 489.032 382.893 442.572 425.056 388.643C480.3 317.933 456.792 154.896 646.393 185.786C850.683 219.099 868.342 366.711 1044.39 387.326C1194.5 404.898 1346.67 318.631 1446.91 246.38" stroke="black" stroke-opacity="0.3" stroke-miterlimit="10"/>
<path d="M-35.8203 69.3125C166.226 128.326 461.281 362.205 482.635 435.51C495.873 480.916 329.621 473.513 300.719 474.843C245.316 477.386 384.593 434.114 426.258 383.412C481.751 315.719 465.611 163.431 646.144 192.766C847.396 225.447 861.065 375.93 1038.63 399.575C1188.97 419.584 1345.74 335.622 1449.27 265.215" stroke="black" stroke-opacity="0.3" stroke-miterlimit="10"/>
<path d="M-35.8398 76.9004C152.65 139.259 430.16 362.139 458.881 431.243C476.291 473.158 327.584 465.215 304.734 465.294C256.586 465.452 386.341 425.671 427.349 378.183C483.114 313.493 474.205 172.006 645.58 199.721C843.772 231.783 853.452 385.112 1032.56 411.8C1183.12 434.193 1344.48 352.602 1451.27 284.026" stroke="black" stroke-opacity="0.3" stroke-miterlimit="10"/>
<path d="M-35.8633 84.5C139.071 150.178 398.831 361.993 435.124 426.987C456.546 465.359 325.045 459.036 308.995 455.729C268.464 458.364 388.335 417.226 428.663 372.966C484.745 311.279 483.068 180.554 645.33 206.689C840.507 238.105 846.197 394.279 1026.8 424.036C1177.61 448.866 1343.55 369.594 1453.63 302.849" stroke="black" stroke-opacity="0.3" stroke-miterlimit="10"/>
<path d="M-35.8633 92.0879C125.47 161.112 367.186 361.796 411.344 422.719C436.597 457.548 322.732 451.014 313.121 446.18C279.707 447.392 390.353 408.796 429.864 367.737C486.332 309.066 491.773 189.104 644.967 213.618C837.107 244.402 838.83 403.408 1020.95 436.234C1172.01 463.462 1342.5 386.548 1455.87 321.633" stroke="black" stroke-opacity="0.3" stroke-miterlimit="10"/>
<path d="M-35.8789 99.6758C111.898 172.033 335.207 361.612 387.594 418.452C416.429 449.75 320.405 442.992 317.322 436.617C291.003 436.393 392.423 400.366 431.141 362.521C488.062 306.854 500.575 197.64 644.702 220.613C833.804 250.752 831.56 412.577 1015.18 448.499C1166.49 478.097 1341.61 403.567 1458.17 340.484" stroke="black" stroke-opacity="0.3" stroke-miterlimit="10"/>
<path d="M-35.9141 107.264C98.3071 182.966 302.824 361.494 363.825 414.185C396.015 441.992 318.08 434.971 321.367 427.067C302.166 425.394 394.405 391.962 432.262 357.253C489.727 304.562 509.222 206.137 644.259 227.529C830.346 257.023 824.135 421.653 1009.22 460.684C1160.81 492.667 1340.44 420.507 1460.33 359.255" stroke="black" stroke-opacity="0.3" stroke-miterlimit="10"/>
<path d="M-35.9141 114.85C84.7286 193.885 270.113 361.559 340.046 409.915C375.386 434.324 315.745 426.947 325.515 417.516C313.41 414.407 396.536 383.57 433.463 352.074C491.563 302.519 517.95 214.698 643.897 234.536C826.969 263.357 816.813 430.807 1003.38 472.959C1155.26 507.287 1339.39 437.525 1462.58 378.117" stroke="black" stroke-opacity="0.3" stroke-miterlimit="10"/>
<path d="M-35.9414 122.439C71.1454 204.821 236.899 361.89 316.284 405.65C354.617 426.792 313.428 418.928 329.636 407.955C324.649 403.41 398.73 375.221 434.66 346.847C493.485 300.401 526.672 223.223 643.552 241.467C823.586 269.617 809.509 439.846 997.5 485.159C1149.68 521.832 1338.35 454.48 1464.79 396.903" stroke="black" stroke-opacity="0.3" stroke-miterlimit="10"/>
<path d="M-35.9531 130.039C57.5551 215.74 203.587 362.574 292.539 401.394C333.818 419.401 311.104 410.905 333.773 398.404C335.904 392.423 401.031 366.895 435.782 341.617C495.491 298.345 535.343 231.744 643.109 248.46C820.129 275.925 802.153 448.973 991.572 497.422C1144.04 536.426 1337.25 471.498 1466.96 415.752" stroke="black" stroke-opacity="0.3" stroke-miterlimit="10"/>
<path d="M-35.9531 137.627C43.9766 226.674 170.218 363.616 268.782 397.127C313.031 412.17 312.056 404.898 337.898 388.854C348.666 382.163 403.388 358.557 437.097 336.401C497.803 296.383 544.183 240.241 642.86 255.429C816.865 282.196 794.967 458.037 985.792 509.66C1138.6 550.995 1336.29 488.478 1469.29 434.576" stroke="black" stroke-opacity="0.3" stroke-miterlimit="10"/>
<path d="M-35.9805 145.252C30.3934 237.631 137.027 365.049 245.111 392.896C292.511 405.12 308.039 395.966 342.156 379.329C359.27 370.977 405.922 350.441 438.407 331.209C500.315 294.576 553.019 248.788 642.606 262.422C813.618 288.464 787.821 467.137 980.052 521.922C1133.2 565.576 1335.36 505.509 1471.62 453.424" stroke="black" stroke-opacity="0.3" stroke-miterlimit="10"/>
<path d="M-36 152.801C16.818 248.526 104.16 366.671 221.244 388.59C271.954 398.087 304.687 387.273 346.171 369.74C369.928 359.689 408.283 342.262 439.498 325.954C502.789 292.878 561.705 257.167 642.133 269.312C810.244 294.472 780.616 475.963 974.07 534.081C1127.67 579.935 1334.21 522.41 1473.76 472.17" stroke="black" stroke-opacity="0.3" stroke-miterlimit="10"/>
<path d="M-36 160.387C3.23946 259.444 71.6988 368.513 197.487 384.32C359.954 404.804 485.221 253.069 641.793 276.305C806.866 300.82 773.271 485.183 968.222 546.343C1122.07 594.634 1333.19 539.441 1476 491.018" stroke="black" stroke-opacity="0.3" stroke-miterlimit="10"/>
<path d="M100.048 229V169.948H111.472V229H100.048ZM108.448 229V218.836H138.52V229H108.448ZM163.885 229.84C159.629 229.84 155.849 228.944 152.545 227.152C149.241 225.304 146.609 222.784 144.649 219.592C142.745 216.4 141.793 212.76 141.793 208.672C141.793 204.64 142.717 201.056 144.565 197.92C146.469 194.728 149.045 192.208 152.293 190.36C155.541 188.456 159.153 187.504 163.129 187.504C167.049 187.504 170.493 188.4 173.461 190.192C176.485 191.928 178.837 194.336 180.517 197.416C182.253 200.44 183.121 203.884 183.121 207.748C183.121 208.476 183.065 209.232 182.953 210.016C182.897 210.744 182.757 211.584 182.533 212.536L148.429 212.62V204.388L177.409 204.304L172.957 207.748C172.845 205.34 172.397 203.324 171.613 201.7C170.885 200.076 169.793 198.844 168.337 198.004C166.937 197.108 165.201 196.66 163.129 196.66C160.945 196.66 159.041 197.164 157.417 198.172C155.793 199.124 154.533 200.496 153.637 202.288C152.797 204.024 152.377 206.096 152.377 208.504C152.377 210.968 152.825 213.124 153.721 214.972C154.673 216.764 156.017 218.164 157.753 219.172C159.489 220.124 161.505 220.6 163.801 220.6C165.873 220.6 167.749 220.264 169.429 219.592C171.109 218.864 172.565 217.8 173.797 216.4L180.265 222.868C178.305 225.164 175.897 226.9 173.041 228.076C170.241 229.252 167.189 229.84 163.885 229.84ZM194.906 229V171.544H205.91V229H194.906ZM185.414 198.088V188.428H215.402V198.088H185.414ZM222.387 192.124L228.267 181.12L231.795 180.112C231.403 180.896 230.955 181.54 230.451 182.044C229.947 182.492 229.359 182.716 228.687 182.716C227.231 182.716 225.887 182.128 224.655 180.952C223.479 179.72 222.891 178.18 222.891 176.332C222.891 174.316 223.563 172.608 224.907 171.208C226.251 169.808 227.903 169.108 229.863 169.108C231.767 169.108 233.419 169.808 234.819 171.208C236.219 172.608 236.919 174.316 236.919 176.332C236.919 177.116 236.751 178.068 236.415 179.188C236.079 180.252 235.463 181.624 234.567 183.304L228.099 195.232L222.387 192.124ZM253.91 229.924C251.614 229.924 249.346 229.616 247.106 229C244.922 228.384 242.906 227.544 241.058 226.48C239.21 225.36 237.614 224.016 236.27 222.448L242.822 215.812C244.222 217.38 245.846 218.556 247.694 219.34C249.542 220.124 251.586 220.516 253.826 220.516C255.618 220.516 256.962 220.264 257.858 219.76C258.81 219.256 259.286 218.5 259.286 217.492C259.286 216.372 258.782 215.504 257.774 214.888C256.822 214.272 255.562 213.768 253.994 213.376C252.426 212.928 250.774 212.452 249.038 211.948C247.358 211.388 245.734 210.688 244.166 209.848C242.598 208.952 241.31 207.748 240.302 206.236C239.35 204.668 238.874 202.652 238.874 200.188C238.874 197.612 239.49 195.372 240.722 193.468C242.01 191.564 243.83 190.08 246.182 189.016C248.534 187.952 251.306 187.42 254.498 187.42C257.858 187.42 260.882 188.008 263.57 189.184C266.314 190.36 268.582 192.124 270.374 194.476L263.738 201.112C262.506 199.6 261.106 198.508 259.538 197.836C258.026 197.164 256.374 196.828 254.582 196.828C252.958 196.828 251.698 197.08 250.802 197.584C249.962 198.088 249.542 198.788 249.542 199.684C249.542 200.692 250.018 201.476 250.97 202.036C251.978 202.596 253.266 203.1 254.834 203.548C256.402 203.94 258.026 204.416 259.706 204.976C261.442 205.48 263.066 206.208 264.578 207.16C266.146 208.112 267.406 209.372 268.358 210.94C269.366 212.508 269.87 214.524 269.87 216.988C269.87 220.964 268.442 224.128 265.586 226.48C262.73 228.776 258.838 229.924 253.91 229.924ZM302.684 229V218.836H317.72C321.528 218.836 324.86 218.052 327.716 216.484C330.572 214.86 332.784 212.592 334.352 209.68C335.976 206.768 336.788 203.324 336.788 199.348C336.788 195.484 335.976 192.124 334.352 189.268C332.728 186.356 330.488 184.116 327.632 182.548C324.776 180.924 321.472 180.112 317.72 180.112H302.432V169.948H317.888C322.256 169.948 326.288 170.676 329.984 172.132C333.736 173.588 336.984 175.66 339.728 178.348C342.528 180.98 344.684 184.088 346.196 187.672C347.764 191.256 348.548 195.176 348.548 199.432C348.548 203.688 347.764 207.636 346.196 211.276C344.684 214.86 342.556 217.996 339.812 220.684C337.068 223.316 333.82 225.36 330.068 226.816C326.372 228.272 322.368 229 318.056 229H302.684ZM294.872 229V169.948H306.296V229H294.872ZM356.45 229V188.428H367.538V229H356.45ZM361.994 181.876C360.202 181.876 358.718 181.288 357.542 180.112C356.366 178.88 355.778 177.368 355.778 175.576C355.778 173.84 356.366 172.356 357.542 171.124C358.718 169.892 360.202 169.276 361.994 169.276C363.842 169.276 365.326 169.892 366.446 171.124C367.622 172.356 368.21 173.84 368.21 175.576C368.21 177.368 367.622 178.88 366.446 180.112C365.326 181.288 363.842 181.876 361.994 181.876ZM391.23 229.924C388.934 229.924 386.666 229.616 384.426 229C382.242 228.384 380.226 227.544 378.378 226.48C376.53 225.36 374.934 224.016 373.59 222.448L380.142 215.812C381.542 217.38 383.166 218.556 385.014 219.34C386.862 220.124 388.906 220.516 391.146 220.516C392.938 220.516 394.282 220.264 395.178 219.76C396.13 219.256 396.606 218.5 396.606 217.492C396.606 216.372 396.102 215.504 395.094 214.888C394.142 214.272 392.882 213.768 391.314 213.376C389.746 212.928 388.094 212.452 386.358 211.948C384.678 211.388 383.054 210.688 381.486 209.848C379.918 208.952 378.63 207.748 377.622 206.236C376.67 204.668 376.194 202.652 376.194 200.188C376.194 197.612 376.81 195.372 378.042 193.468C379.33 191.564 381.15 190.08 383.502 189.016C385.854 187.952 388.626 187.42 391.818 187.42C395.178 187.42 398.202 188.008 400.89 189.184C403.634 190.36 405.902 192.124 407.694 194.476L401.058 201.112C399.826 199.6 398.426 198.508 396.858 197.836C395.346 197.164 393.694 196.828 391.902 196.828C390.278 196.828 389.018 197.08 388.122 197.584C387.282 198.088 386.862 198.788 386.862 199.684C386.862 200.692 387.338 201.476 388.29 202.036C389.298 202.596 390.586 203.1 392.154 203.548C393.722 203.94 395.346 204.416 397.026 204.976C398.762 205.48 400.386 206.208 401.898 207.16C403.466 208.112 404.726 209.372 405.678 210.94C406.686 212.508 407.19 214.524 407.19 216.988C407.19 220.964 405.762 224.128 402.906 226.48C400.05 228.776 396.158 229.924 391.23 229.924ZM433.762 229.84C429.618 229.84 425.894 228.916 422.59 227.068C419.286 225.22 416.682 222.7 414.778 219.508C412.874 216.316 411.922 212.732 411.922 208.756C411.922 204.724 412.874 201.112 414.778 197.92C416.682 194.728 419.286 192.208 422.59 190.36C425.95 188.456 429.674 187.504 433.762 187.504C436.954 187.504 439.894 188.092 442.582 189.268C445.27 190.444 447.594 192.124 449.554 194.308L442.498 201.448C441.434 200.272 440.146 199.376 438.634 198.76C437.178 198.144 435.554 197.836 433.762 197.836C431.746 197.836 429.926 198.312 428.302 199.264C426.734 200.16 425.474 201.42 424.522 203.044C423.626 204.612 423.178 206.488 423.178 208.672C423.178 210.8 423.626 212.704 424.522 214.384C425.474 216.008 426.734 217.296 428.302 218.248C429.926 219.144 431.746 219.592 433.762 219.592C435.61 219.592 437.262 219.284 438.718 218.668C440.23 217.996 441.518 217.044 442.582 215.812L449.722 222.952C447.65 225.192 445.27 226.9 442.582 228.076C439.894 229.252 436.954 229.84 433.762 229.84ZM473.258 229.84C469.674 229.84 466.482 229.084 463.682 227.572C460.938 226.06 458.782 223.96 457.214 221.272C455.646 218.584 454.862 215.476 454.862 211.948V188.428H465.95V211.696C465.95 213.376 466.23 214.832 466.79 216.064C467.35 217.24 468.19 218.136 469.31 218.752C470.43 219.368 471.746 219.676 473.258 219.676C475.554 219.676 477.346 218.976 478.634 217.576C479.922 216.176 480.566 214.216 480.566 211.696V188.428H491.57V211.948C491.57 215.532 490.786 218.668 489.218 221.356C487.706 224.044 485.55 226.144 482.75 227.656C480.006 229.112 476.842 229.84 473.258 229.84ZM514.277 229.924C511.981 229.924 509.713 229.616 507.473 229C505.289 228.384 503.273 227.544 501.425 226.48C499.577 225.36 497.981 224.016 496.637 222.448L503.189 215.812C504.589 217.38 506.213 218.556 508.061 219.34C509.909 220.124 511.953 220.516 514.193 220.516C515.985 220.516 517.329 220.264 518.225 219.76C519.177 219.256 519.653 218.5 519.653 217.492C519.653 216.372 519.149 215.504 518.141 214.888C517.189 214.272 515.929 213.768 514.361 213.376C512.793 212.928 511.141 212.452 509.405 211.948C507.725 211.388 506.101 210.688 504.533 209.848C502.965 208.952 501.677 207.748 500.669 206.236C499.717 204.668 499.241 202.652 499.241 200.188C499.241 197.612 499.857 195.372 501.089 193.468C502.377 191.564 504.197 190.08 506.549 189.016C508.901 187.952 511.673 187.42 514.865 187.42C518.225 187.42 521.249 188.008 523.937 189.184C526.681 190.36 528.949 192.124 530.741 194.476L524.105 201.112C522.873 199.6 521.473 198.508 519.905 197.836C518.393 197.164 516.741 196.828 514.949 196.828C513.325 196.828 512.065 197.08 511.169 197.584C510.329 198.088 509.909 198.788 509.909 199.684C509.909 200.692 510.385 201.476 511.337 202.036C512.345 202.596 513.633 203.1 515.201 203.548C516.769 203.94 518.393 204.416 520.073 204.976C521.809 205.48 523.433 206.208 524.945 207.16C526.513 208.112 527.773 209.372 528.725 210.94C529.733 212.508 530.237 214.524 530.237 216.988C530.237 220.964 528.809 224.128 525.953 226.48C523.097 228.776 519.205 229.924 514.277 229.924ZM551.601 229.924C549.305 229.924 547.037 229.616 544.797 229C542.613 228.384 540.597 227.544 538.749 226.48C536.901 225.36 535.305 224.016 533.961 222.448L540.513 215.812C541.913 217.38 543.537 218.556 545.385 219.34C547.233 220.124 549.277 220.516 551.517 220.516C553.309 220.516 554.653 220.264 555.549 219.76C556.501 219.256 556.977 218.5 556.977 217.492C556.977 216.372 556.473 215.504 555.465 214.888C554.513 214.272 553.253 213.768 551.685 213.376C550.117 212.928 548.465 212.452 546.729 211.948C545.049 211.388 543.425 210.688 541.857 209.848C540.289 208.952 539.001 207.748 537.993 206.236C537.041 204.668 536.565 202.652 536.565 200.188C536.565 197.612 537.181 195.372 538.413 193.468C539.701 191.564 541.521 190.08 543.873 189.016C546.225 187.952 548.997 187.42 552.189 187.42C555.549 187.42 558.573 188.008 561.261 189.184C564.005 190.36 566.273 192.124 568.065 194.476L561.429 201.112C560.197 199.6 558.797 198.508 557.229 197.836C555.717 197.164 554.065 196.828 552.273 196.828C550.649 196.828 549.389 197.08 548.493 197.584C547.653 198.088 547.233 198.788 547.233 199.684C547.233 200.692 547.709 201.476 548.661 202.036C549.669 202.596 550.957 203.1 552.525 203.548C554.093 203.94 555.717 204.416 557.397 204.976C559.133 205.48 560.757 206.208 562.269 207.16C563.837 208.112 565.097 209.372 566.049 210.94C567.057 212.508 567.561 214.524 567.561 216.988C567.561 220.964 566.133 224.128 563.277 226.48C560.421 228.776 556.529 229.924 551.601 229.924ZM118.36 299.236L95.512 262.948H108.7L126.424 292.012H118.864L136.588 262.948H149.608L126.508 299.236H118.36ZM116.848 322V293.104H128.356V322H116.848ZM162.811 322.84C158.723 322.84 155.027 321.916 151.723 320.068C148.475 318.164 145.871 315.616 143.911 312.424C142.007 309.176 141.055 305.564 141.055 301.588C141.055 297.612 142.007 294.056 143.911 290.92C145.815 287.728 148.419 285.208 151.723 283.36C155.027 281.456 158.695 280.504 162.727 280.504C166.871 280.504 170.567 281.456 173.815 283.36C177.119 285.208 179.723 287.728 181.627 290.92C183.531 294.056 184.483 297.612 184.483 301.588C184.483 305.564 183.531 309.176 181.627 312.424C179.723 315.616 177.119 318.164 173.815 320.068C170.567 321.916 166.899 322.84 162.811 322.84ZM162.727 312.592C164.799 312.592 166.619 312.144 168.187 311.248C169.811 310.296 171.043 309.008 171.883 307.384C172.779 305.704 173.227 303.8 173.227 301.672C173.227 299.544 172.779 297.668 171.883 296.044C170.987 294.42 169.755 293.16 168.187 292.264C166.619 291.312 164.799 290.836 162.727 290.836C160.711 290.836 158.919 291.312 157.351 292.264C155.783 293.16 154.551 294.42 153.655 296.044C152.759 297.668 152.311 299.544 152.311 301.672C152.311 303.8 152.759 305.704 153.655 307.384C154.551 309.008 155.783 310.296 157.351 311.248C158.919 312.144 160.711 312.592 162.727 312.592ZM208.871 322.84C205.287 322.84 202.095 322.084 199.295 320.572C196.551 319.06 194.395 316.96 192.827 314.272C191.259 311.584 190.475 308.476 190.475 304.948V281.428H201.563V304.696C201.563 306.376 201.843 307.832 202.403 309.064C202.963 310.24 203.803 311.136 204.923 311.752C206.043 312.368 207.359 312.676 208.871 312.676C211.167 312.676 212.959 311.976 214.247 310.576C215.535 309.176 216.179 307.216 216.179 304.696V281.428H227.183V304.948C227.183 308.532 226.399 311.668 224.831 314.356C223.319 317.044 221.163 319.144 218.363 320.656C215.619 322.112 212.455 322.84 208.871 322.84ZM235.946 322V281.428H246.95V322H235.946ZM246.95 299.572L242.666 296.716C243.17 291.732 244.626 287.812 247.034 284.956C249.442 282.044 252.914 280.588 257.45 280.588C259.41 280.588 261.174 280.924 262.742 281.596C264.31 282.212 265.738 283.248 267.026 284.704L260.138 292.6C259.522 291.928 258.766 291.424 257.87 291.088C257.03 290.752 256.05 290.584 254.93 290.584C252.578 290.584 250.646 291.34 249.134 292.852C247.678 294.308 246.95 296.548 246.95 299.572ZM298.35 300.076V290.752H312.042C313.834 290.752 315.458 290.388 316.914 289.66C318.37 288.932 319.518 287.896 320.358 286.552C321.198 285.152 321.618 283.472 321.618 281.512C321.618 279.608 321.198 277.956 320.358 276.556C319.518 275.156 318.37 274.092 316.914 273.364C315.458 272.636 313.834 272.272 312.042 272.272H298.35V262.948H313.218C316.97 262.948 320.33 263.704 323.298 265.216C326.322 266.728 328.702 268.884 330.438 271.684C332.174 274.428 333.042 277.704 333.042 281.512C333.042 285.32 332.174 288.624 330.438 291.424C328.702 294.168 326.322 296.296 323.298 297.808C320.33 299.32 316.97 300.076 313.218 300.076H298.35ZM289.95 322V262.948H301.374V322H289.95ZM340.536 322V281.428H351.54V322H340.536ZM351.54 299.572L347.256 296.716C347.76 291.732 349.216 287.812 351.624 284.956C354.032 282.044 357.504 280.588 362.04 280.588C364 280.588 365.764 280.924 367.332 281.596C368.9 282.212 370.328 283.248 371.616 284.704L364.728 292.6C364.112 291.928 363.356 291.424 362.46 291.088C361.62 290.752 360.64 290.584 359.52 290.584C357.168 290.584 355.236 291.34 353.724 292.852C352.268 294.308 351.54 296.548 351.54 299.572ZM393.401 322.84C389.313 322.84 385.617 321.916 382.313 320.068C379.065 318.164 376.461 315.616 374.501 312.424C372.597 309.176 371.645 305.564 371.645 301.588C371.645 297.612 372.597 294.056 374.501 290.92C376.405 287.728 379.009 285.208 382.313 283.36C385.617 281.456 389.285 280.504 393.317 280.504C397.461 280.504 401.157 281.456 404.405 283.36C407.709 285.208 410.313 287.728 412.217 290.92C414.121 294.056 415.073 297.612 415.073 301.588C415.073 305.564 414.121 309.176 412.217 312.424C410.313 315.616 407.709 318.164 404.405 320.068C401.157 321.916 397.489 322.84 393.401 322.84ZM393.317 312.592C395.389 312.592 397.209 312.144 398.777 311.248C400.401 310.296 401.633 309.008 402.473 307.384C403.369 305.704 403.817 303.8 403.817 301.672C403.817 299.544 403.369 297.668 402.473 296.044C401.577 294.42 400.345 293.16 398.777 292.264C397.209 291.312 395.389 290.836 393.317 290.836C391.301 290.836 389.509 291.312 387.941 292.264C386.373 293.16 385.141 294.42 384.245 296.044C383.349 297.668 382.901 299.544 382.901 301.672C382.901 303.8 383.349 305.704 384.245 307.384C385.141 309.008 386.373 310.296 387.941 311.248C389.509 312.144 391.301 312.592 393.317 312.592ZM418.881 339.976C415.969 339.976 413.561 339.5 411.657 338.548C409.697 337.596 407.933 336.252 406.365 334.516L413.337 327.544C414.009 328.384 414.737 328.972 415.521 329.308C416.249 329.7 417.117 329.896 418.125 329.896C419.525 329.896 420.701 329.476 421.653 328.636C422.605 327.796 423.081 326.564 423.081 324.94V281.428H434.085V324.772C434.085 327.964 433.385 330.68 431.985 332.92C430.641 335.216 428.821 336.952 426.525 338.128C424.285 339.36 421.737 339.976 418.881 339.976ZM428.709 274.876C426.917 274.876 425.433 274.288 424.257 273.112C423.081 271.88 422.493 270.368 422.493 268.576C422.493 266.84 423.081 265.356 424.257 264.124C425.433 262.892 426.917 262.276 428.709 262.276C430.557 262.276 432.041 262.892 433.161 264.124C434.337 265.356 434.925 266.84 434.925 268.576C434.925 270.368 434.337 271.88 433.161 273.112C432.041 274.288 430.557 274.876 428.709 274.876ZM463.135 322.84C458.879 322.84 455.099 321.944 451.795 320.152C448.491 318.304 445.859 315.784 443.899 312.592C441.995 309.4 441.043 305.76 441.043 301.672C441.043 297.64 441.967 294.056 443.815 290.92C445.719 287.728 448.295 285.208 451.543 283.36C454.791 281.456 458.403 280.504 462.379 280.504C466.299 280.504 469.743 281.4 472.711 283.192C475.735 284.928 478.087 287.336 479.767 290.416C481.503 293.44 482.371 296.884 482.371 300.748C482.371 301.476 482.315 302.232 482.203 303.016C482.147 303.744 482.007 304.584 481.783 305.536L447.679 305.62V297.388L476.659 297.304L472.207 300.748C472.095 298.34 471.647 296.324 470.863 294.7C470.135 293.076 469.043 291.844 467.587 291.004C466.187 290.108 464.451 289.66 462.379 289.66C460.195 289.66 458.291 290.164 456.667 291.172C455.043 292.124 453.783 293.496 452.887 295.288C452.047 297.024 451.627 299.096 451.627 301.504C451.627 303.968 452.075 306.124 452.971 307.972C453.923 309.764 455.267 311.164 457.003 312.172C458.739 313.124 460.755 313.6 463.051 313.6C465.123 313.6 466.999 313.264 468.679 312.592C470.359 311.864 471.815 310.8 473.047 309.4L479.515 315.868C477.555 318.164 475.147 319.9 472.291 321.076C469.491 322.252 466.439 322.84 463.135 322.84ZM508.329 322.84C504.185 322.84 500.461 321.916 497.157 320.068C493.853 318.22 491.249 315.7 489.345 312.508C487.441 309.316 486.489 305.732 486.489 301.756C486.489 297.724 487.441 294.112 489.345 290.92C491.249 287.728 493.853 285.208 497.157 283.36C500.517 281.456 504.241 280.504 508.329 280.504C511.521 280.504 514.461 281.092 517.149 282.268C519.837 283.444 522.161 285.124 524.121 287.308L517.065 294.448C516.001 293.272 514.713 292.376 513.201 291.76C511.745 291.144 510.121 290.836 508.329 290.836C506.313 290.836 504.493 291.312 502.869 292.264C501.301 293.16 500.041 294.42 499.089 296.044C498.193 297.612 497.745 299.488 497.745 301.672C497.745 303.8 498.193 305.704 499.089 307.384C500.041 309.008 501.301 310.296 502.869 311.248C504.493 312.144 506.313 312.592 508.329 312.592C510.177 312.592 511.829 312.284 513.285 311.668C514.797 310.996 516.085 310.044 517.149 308.812L524.289 315.952C522.217 318.192 519.837 319.9 517.149 321.076C514.461 322.252 511.521 322.84 508.329 322.84ZM535.828 322V264.544H546.832V322H535.828ZM526.336 291.088V281.428H556.324V291.088H526.336Z" fill="#302E2E"/>
<path d="M95.968 388V371.344H98.224V388H95.968ZM97.504 388V385.936H106.432V388H97.504ZM114.982 388.24C113.862 388.24 112.854 387.976 111.958 387.448C111.062 386.92 110.35 386.208 109.822 385.312C109.294 384.4 109.03 383.384 109.03 382.264C109.03 381.16 109.294 380.168 109.822 379.288C110.35 378.392 111.062 377.68 111.958 377.152C112.854 376.624 113.862 376.36 114.982 376.36C116.086 376.36 117.086 376.624 117.982 377.152C118.894 377.664 119.614 378.368 120.142 379.264C120.67 380.16 120.934 381.16 120.934 382.264C120.934 383.384 120.67 384.4 120.142 385.312C119.614 386.208 118.894 386.92 117.982 387.448C117.086 387.976 116.086 388.24 114.982 388.24ZM114.982 386.152C115.702 386.152 116.342 385.984 116.902 385.648C117.462 385.312 117.902 384.856 118.222 384.28C118.542 383.688 118.702 383.016 118.702 382.264C118.702 381.528 118.534 380.872 118.198 380.296C117.878 379.72 117.438 379.272 116.878 378.952C116.334 378.616 115.702 378.448 114.982 378.448C114.262 378.448 113.622 378.616 113.062 378.952C112.502 379.272 112.062 379.72 111.742 380.296C111.422 380.872 111.262 381.528 111.262 382.264C111.262 383.016 111.422 383.688 111.742 384.28C112.062 384.856 112.502 385.312 113.062 385.648C113.622 385.984 114.262 386.152 114.982 386.152ZM124.808 388V376.6H126.968V388H124.808ZM126.968 381.496L126.152 381.136C126.152 379.68 126.488 378.52 127.16 377.656C127.832 376.792 128.8 376.36 130.064 376.36C130.64 376.36 131.16 376.464 131.624 376.672C132.088 376.864 132.52 377.192 132.92 377.656L131.504 379.12C131.264 378.864 131 378.68 130.712 378.568C130.424 378.456 130.088 378.4 129.704 378.4C128.904 378.4 128.248 378.656 127.736 379.168C127.224 379.68 126.968 380.456 126.968 381.496ZM140.786 388.24C139.65 388.24 138.626 387.984 137.714 387.472C136.802 386.944 136.082 386.232 135.554 385.336C135.026 384.44 134.762 383.424 134.762 382.288C134.762 381.168 135.018 380.16 135.53 379.264C136.058 378.368 136.762 377.664 137.642 377.152C138.538 376.624 139.538 376.36 140.642 376.36C141.698 376.36 142.626 376.6 143.426 377.08C144.242 377.56 144.874 378.224 145.322 379.072C145.786 379.92 146.018 380.88 146.018 381.952C146.018 382.112 146.01 382.288 145.994 382.48C145.978 382.656 145.946 382.864 145.898 383.104H136.274V381.304H144.746L143.954 382C143.954 381.232 143.818 380.584 143.546 380.056C143.274 379.512 142.89 379.096 142.394 378.808C141.898 378.504 141.298 378.352 140.594 378.352C139.858 378.352 139.21 378.512 138.65 378.832C138.09 379.152 137.658 379.6 137.354 380.176C137.05 380.752 136.898 381.432 136.898 382.216C136.898 383.016 137.058 383.72 137.378 384.328C137.698 384.92 138.154 385.384 138.746 385.72C139.338 386.04 140.018 386.2 140.786 386.2C141.426 386.2 142.01 386.088 142.538 385.864C143.082 385.64 143.546 385.304 143.93 384.856L145.322 386.272C144.778 386.912 144.106 387.4 143.306 387.736C142.522 388.072 141.682 388.24 140.786 388.24ZM149.813 388V376.6H151.973V388H149.813ZM157.517 388V381.112C157.517 380.264 157.253 379.6 156.725 379.12C156.213 378.624 155.565 378.376 154.781 378.376C154.253 378.376 153.781 378.488 153.365 378.712C152.949 378.936 152.613 379.248 152.357 379.648C152.101 380.048 151.973 380.528 151.973 381.088L151.085 380.656C151.085 379.792 151.269 379.04 151.637 378.4C152.021 377.76 152.541 377.264 153.197 376.912C153.853 376.544 154.589 376.36 155.405 376.36C156.205 376.36 156.925 376.536 157.565 376.888C158.221 377.24 158.733 377.736 159.101 378.376C159.485 379.016 159.677 379.776 159.677 380.656V388H157.517ZM165.221 388V381.112C165.221 380.264 164.957 379.6 164.429 379.12C163.917 378.624 163.277 378.376 162.509 378.376C161.981 378.376 161.501 378.488 161.069 378.712C160.653 378.936 160.317 379.248 160.061 379.648C159.805 380.048 159.677 380.528 159.677 381.088L158.453 380.656C158.501 379.776 158.733 379.024 159.149 378.4C159.581 377.76 160.133 377.264 160.805 376.912C161.477 376.544 162.213 376.36 163.013 376.36C163.845 376.36 164.589 376.536 165.245 376.888C165.901 377.24 166.421 377.736 166.805 378.376C167.205 379.016 167.405 379.784 167.405 380.68V388H165.221ZM178.24 388V376.6H180.4V388H178.24ZM179.32 374.32C178.92 374.32 178.592 374.192 178.336 373.936C178.08 373.664 177.952 373.328 177.952 372.928C177.952 372.544 178.08 372.224 178.336 371.968C178.592 371.696 178.92 371.56 179.32 371.56C179.72 371.56 180.048 371.696 180.304 371.968C180.56 372.224 180.688 372.544 180.688 372.928C180.688 373.328 180.56 373.664 180.304 373.936C180.048 374.192 179.72 374.32 179.32 374.32ZM191.023 388.24C190.159 388.24 189.375 388.064 188.671 387.712C187.983 387.344 187.431 386.84 187.015 386.2C186.599 385.56 186.367 384.832 186.319 384.016V380.584C186.367 379.752 186.599 379.024 187.015 378.4C187.447 377.76 188.007 377.264 188.695 376.912C189.399 376.544 190.175 376.36 191.023 376.36C192.063 376.36 192.999 376.624 193.831 377.152C194.679 377.68 195.343 378.392 195.823 379.288C196.303 380.184 196.543 381.192 196.543 382.312C196.543 383.432 196.303 384.44 195.823 385.336C195.343 386.232 194.679 386.944 193.831 387.472C192.999 387.984 192.063 388.24 191.023 388.24ZM185.023 392.776V376.6H187.183V379.6L186.775 382.36L187.183 385.144V392.776H185.023ZM190.663 386.2C191.383 386.2 192.015 386.032 192.559 385.696C193.103 385.36 193.535 384.904 193.855 384.328C194.175 383.736 194.335 383.056 194.335 382.288C194.335 381.536 194.175 380.864 193.855 380.272C193.535 379.68 193.103 379.224 192.559 378.904C192.015 378.568 191.391 378.4 190.687 378.4C189.967 378.4 189.335 378.568 188.791 378.904C188.247 379.224 187.823 379.68 187.519 380.272C187.215 380.864 187.063 381.544 187.063 382.312C187.063 383.064 187.207 383.736 187.495 384.328C187.799 384.904 188.223 385.36 188.767 385.696C189.327 386.032 189.959 386.2 190.663 386.2ZM204.056 388.24C203.416 388.24 202.808 388.16 202.232 388C201.672 387.824 201.152 387.584 200.672 387.28C200.192 386.96 199.776 386.584 199.424 386.152L200.816 384.76C201.232 385.272 201.712 385.656 202.256 385.912C202.8 386.152 203.408 386.272 204.08 386.272C204.752 386.272 205.272 386.16 205.64 385.936C206.008 385.696 206.192 385.368 206.192 384.952C206.192 384.536 206.04 384.216 205.736 383.992C205.448 383.752 205.072 383.56 204.608 383.416C204.144 383.256 203.648 383.104 203.12 382.96C202.608 382.8 202.12 382.6 201.656 382.36C201.192 382.12 200.808 381.792 200.504 381.376C200.216 380.96 200.072 380.408 200.072 379.72C200.072 379.032 200.24 378.44 200.576 377.944C200.912 377.432 201.376 377.04 201.968 376.768C202.576 376.496 203.304 376.36 204.152 376.36C205.048 376.36 205.84 376.52 206.528 376.84C207.232 377.144 207.808 377.608 208.256 378.232L206.864 379.624C206.544 379.208 206.144 378.888 205.664 378.664C205.2 378.44 204.672 378.328 204.08 378.328C203.456 378.328 202.976 378.44 202.64 378.664C202.32 378.872 202.16 379.168 202.16 379.552C202.16 379.936 202.304 380.232 202.592 380.44C202.88 380.648 203.256 380.824 203.72 380.968C204.2 381.112 204.696 381.264 205.208 381.424C205.72 381.568 206.208 381.768 206.672 382.024C207.136 382.28 207.512 382.624 207.8 383.056C208.104 383.488 208.256 384.056 208.256 384.76C208.256 385.832 207.872 386.68 207.104 387.304C206.352 387.928 205.336 388.24 204.056 388.24ZM216.698 388.24C215.77 388.24 214.93 388.032 214.178 387.616C213.442 387.184 212.866 386.592 212.45 385.84C212.034 385.088 211.826 384.216 211.826 383.224V376.6H213.986V383.128C213.986 383.752 214.09 384.296 214.298 384.76C214.522 385.208 214.842 385.552 215.258 385.792C215.674 386.032 216.162 386.152 216.722 386.152C217.57 386.152 218.234 385.888 218.714 385.36C219.194 384.816 219.434 384.072 219.434 383.128V376.6H221.594V383.224C221.594 384.216 221.386 385.088 220.97 385.84C220.554 386.592 219.978 387.184 219.242 387.616C218.522 388.032 217.674 388.24 216.698 388.24ZM225.929 388V376.6H228.089V388H225.929ZM233.633 388V381.112C233.633 380.264 233.369 379.6 232.841 379.12C232.329 378.624 231.681 378.376 230.897 378.376C230.369 378.376 229.897 378.488 229.481 378.712C229.065 378.936 228.729 379.248 228.473 379.648C228.217 380.048 228.089 380.528 228.089 381.088L227.201 380.656C227.201 379.792 227.385 379.04 227.753 378.4C228.137 377.76 228.657 377.264 229.313 376.912C229.969 376.544 230.705 376.36 231.521 376.36C232.321 376.36 233.041 376.536 233.681 376.888C234.337 377.24 234.849 377.736 235.217 378.376C235.601 379.016 235.793 379.776 235.793 380.656V388H233.633ZM241.337 388V381.112C241.337 380.264 241.073 379.6 240.545 379.12C240.033 378.624 239.393 378.376 238.625 378.376C238.097 378.376 237.617 378.488 237.185 378.712C236.769 378.936 236.433 379.248 236.177 379.648C235.921 380.048 235.793 380.528 235.793 381.088L234.569 380.656C234.617 379.776 234.849 379.024 235.265 378.4C235.697 377.76 236.249 377.264 236.921 376.912C237.593 376.544 238.329 376.36 239.129 376.36C239.961 376.36 240.705 376.536 241.361 376.888C242.017 377.24 242.537 377.736 242.921 378.376C243.321 379.016 243.521 379.784 243.521 380.68V388H241.337ZM259.157 388.24C258.101 388.24 257.157 387.984 256.325 387.472C255.493 386.944 254.829 386.232 254.333 385.336C253.853 384.44 253.613 383.432 253.613 382.312C253.613 381.192 253.853 380.184 254.333 379.288C254.829 378.392 255.493 377.68 256.325 377.152C257.157 376.624 258.101 376.36 259.157 376.36C260.005 376.36 260.773 376.544 261.461 376.912C262.149 377.264 262.701 377.76 263.117 378.4C263.549 379.024 263.789 379.752 263.837 380.584V384.016C263.789 384.832 263.557 385.56 263.141 386.2C262.725 386.84 262.173 387.344 261.485 387.712C260.797 388.064 260.021 388.24 259.157 388.24ZM259.517 386.2C260.237 386.2 260.861 386.032 261.389 385.696C261.933 385.36 262.357 384.904 262.661 384.328C262.965 383.736 263.117 383.064 263.117 382.312C263.117 381.528 262.957 380.848 262.637 380.272C262.333 379.696 261.909 379.24 261.365 378.904C260.837 378.568 260.213 378.4 259.493 378.4C258.773 378.4 258.141 378.568 257.597 378.904C257.053 379.24 256.621 379.704 256.301 380.296C255.997 380.872 255.845 381.536 255.845 382.288C255.845 383.056 255.997 383.736 256.301 384.328C256.621 384.904 257.053 385.36 257.597 385.696C258.157 386.032 258.797 386.2 259.517 386.2ZM265.157 388H262.973V384.928L263.381 382.144L262.973 379.384V370.864H265.157V388ZM274.95 388.24C273.83 388.24 272.822 387.976 271.926 387.448C271.03 386.92 270.318 386.208 269.79 385.312C269.262 384.4 268.998 383.384 268.998 382.264C268.998 381.16 269.262 380.168 269.79 379.288C270.318 378.392 271.03 377.68 271.926 377.152C272.822 376.624 273.83 376.36 274.95 376.36C276.054 376.36 277.054 376.624 277.95 377.152C278.862 377.664 279.582 378.368 280.11 379.264C280.638 380.16 280.902 381.16 280.902 382.264C280.902 383.384 280.638 384.4 280.11 385.312C279.582 386.208 278.862 386.92 277.95 387.448C277.054 387.976 276.054 388.24 274.95 388.24ZM274.95 386.152C275.67 386.152 276.31 385.984 276.87 385.648C277.43 385.312 277.87 384.856 278.19 384.28C278.51 383.688 278.67 383.016 278.67 382.264C278.67 381.528 278.502 380.872 278.166 380.296C277.846 379.72 277.406 379.272 276.846 378.952C276.302 378.616 275.67 378.448 274.95 378.448C274.23 378.448 273.59 378.616 273.03 378.952C272.47 379.272 272.03 379.72 271.71 380.296C271.39 380.872 271.23 381.528 271.23 382.264C271.23 383.016 271.39 383.688 271.71 384.28C272.03 384.856 272.47 385.312 273.03 385.648C273.59 385.984 274.23 386.152 274.95 386.152ZM284.775 388V370.864H286.935V388H284.775ZM296.744 388.24C295.624 388.24 294.616 387.976 293.72 387.448C292.824 386.92 292.112 386.208 291.584 385.312C291.056 384.4 290.792 383.384 290.792 382.264C290.792 381.16 291.056 380.168 291.584 379.288C292.112 378.392 292.824 377.68 293.72 377.152C294.616 376.624 295.624 376.36 296.744 376.36C297.848 376.36 298.848 376.624 299.744 377.152C300.656 377.664 301.376 378.368 301.904 379.264C302.432 380.16 302.696 381.16 302.696 382.264C302.696 383.384 302.432 384.4 301.904 385.312C301.376 386.208 300.656 386.92 299.744 387.448C298.848 387.976 297.848 388.24 296.744 388.24ZM296.744 386.152C297.464 386.152 298.104 385.984 298.664 385.648C299.224 385.312 299.664 384.856 299.984 384.28C300.304 383.688 300.464 383.016 300.464 382.264C300.464 381.528 300.296 380.872 299.96 380.296C299.64 379.72 299.2 379.272 298.64 378.952C298.096 378.616 297.464 378.448 296.744 378.448C296.024 378.448 295.384 378.616 294.824 378.952C294.264 379.272 293.824 379.72 293.504 380.296C293.184 380.872 293.024 381.528 293.024 382.264C293.024 383.016 293.184 383.688 293.504 384.28C293.824 384.856 294.264 385.312 294.824 385.648C295.384 385.984 296.024 386.152 296.744 386.152ZM306.569 388V376.6H308.729V388H306.569ZM308.729 381.496L307.913 381.136C307.913 379.68 308.249 378.52 308.921 377.656C309.593 376.792 310.561 376.36 311.825 376.36C312.401 376.36 312.921 376.464 313.385 376.672C313.849 376.864 314.281 377.192 314.681 377.656L313.265 379.12C313.025 378.864 312.761 378.68 312.473 378.568C312.185 378.456 311.849 378.4 311.465 378.4C310.665 378.4 310.009 378.656 309.497 379.168C308.985 379.68 308.729 380.456 308.729 381.496ZM328.12 388.24C327.48 388.24 326.872 388.16 326.296 388C325.736 387.824 325.216 387.584 324.736 387.28C324.256 386.96 323.84 386.584 323.488 386.152L324.88 384.76C325.296 385.272 325.776 385.656 326.32 385.912C326.864 386.152 327.472 386.272 328.144 386.272C328.816 386.272 329.336 386.16 329.704 385.936C330.072 385.696 330.256 385.368 330.256 384.952C330.256 384.536 330.104 384.216 329.8 383.992C329.512 383.752 329.136 383.56 328.672 383.416C328.208 383.256 327.712 383.104 327.184 382.96C326.672 382.8 326.184 382.6 325.72 382.36C325.256 382.12 324.872 381.792 324.568 381.376C324.28 380.96 324.136 380.408 324.136 379.72C324.136 379.032 324.304 378.44 324.64 377.944C324.976 377.432 325.44 377.04 326.032 376.768C326.64 376.496 327.368 376.36 328.216 376.36C329.112 376.36 329.904 376.52 330.592 376.84C331.296 377.144 331.872 377.608 332.32 378.232L330.928 379.624C330.608 379.208 330.208 378.888 329.728 378.664C329.264 378.44 328.736 378.328 328.144 378.328C327.52 378.328 327.04 378.44 326.704 378.664C326.384 378.872 326.224 379.168 326.224 379.552C326.224 379.936 326.368 380.232 326.656 380.44C326.944 380.648 327.32 380.824 327.784 380.968C328.264 381.112 328.76 381.264 329.272 381.424C329.784 381.568 330.272 381.768 330.736 382.024C331.2 382.28 331.576 382.624 331.864 383.056C332.168 383.488 332.32 384.056 332.32 384.76C332.32 385.832 331.936 386.68 331.168 387.304C330.416 387.928 329.4 388.24 328.12 388.24ZM336.202 388V376.6H338.362V388H336.202ZM337.282 374.32C336.882 374.32 336.554 374.192 336.298 373.936C336.042 373.664 335.914 373.328 335.914 372.928C335.914 372.544 336.042 372.224 336.298 371.968C336.554 371.696 336.882 371.56 337.282 371.56C337.682 371.56 338.01 371.696 338.266 371.968C338.522 372.224 338.65 372.544 338.65 372.928C338.65 373.328 338.522 373.664 338.266 373.936C338.01 374.192 337.682 374.32 337.282 374.32ZM344.738 388V371.824H346.898V388H344.738ZM341.93 378.568V376.6H349.706V378.568H341.93ZM364.542 388.24C363.502 388.24 362.558 387.984 361.71 387.472C360.862 386.944 360.19 386.232 359.694 385.336C359.214 384.44 358.974 383.432 358.974 382.312C358.974 381.192 359.214 380.184 359.694 379.288C360.19 378.392 360.854 377.68 361.686 377.152C362.534 376.624 363.486 376.36 364.542 376.36C365.406 376.36 366.174 376.544 366.846 376.912C367.534 377.264 368.086 377.76 368.502 378.4C368.918 379.024 369.15 379.752 369.198 380.584V384.016C369.15 384.832 368.918 385.56 368.502 386.2C368.102 386.84 367.558 387.344 366.87 387.712C366.198 388.064 365.422 388.24 364.542 388.24ZM364.902 386.2C365.974 386.2 366.838 385.84 367.494 385.12C368.15 384.384 368.478 383.448 368.478 382.312C368.478 381.528 368.326 380.848 368.022 380.272C367.734 379.68 367.318 379.224 366.774 378.904C366.23 378.568 365.598 378.4 364.878 378.4C364.158 378.4 363.518 378.568 362.958 378.904C362.414 379.24 361.982 379.704 361.662 380.296C361.358 380.872 361.206 381.536 361.206 382.288C361.206 383.056 361.358 383.736 361.662 384.328C361.982 384.904 362.422 385.36 362.982 385.696C363.542 386.032 364.182 386.2 364.902 386.2ZM368.334 388V384.928L368.742 382.144L368.334 379.384V376.6H370.518V388H368.334ZM375.102 388V376.6H377.262V388H375.102ZM382.806 388V381.112C382.806 380.264 382.542 379.6 382.014 379.12C381.502 378.624 380.854 378.376 380.07 378.376C379.542 378.376 379.07 378.488 378.654 378.712C378.238 378.936 377.902 379.248 377.646 379.648C377.39 380.048 377.262 380.528 377.262 381.088L376.374 380.656C376.374 379.792 376.558 379.04 376.926 378.4C377.31 377.76 377.83 377.264 378.486 376.912C379.142 376.544 379.878 376.36 380.694 376.36C381.494 376.36 382.214 376.536 382.854 376.888C383.51 377.24 384.022 377.736 384.39 378.376C384.774 379.016 384.966 379.776 384.966 380.656V388H382.806ZM390.51 388V381.112C390.51 380.264 390.246 379.6 389.718 379.12C389.206 378.624 388.566 378.376 387.798 378.376C387.27 378.376 386.79 378.488 386.358 378.712C385.942 378.936 385.606 379.248 385.35 379.648C385.094 380.048 384.966 380.528 384.966 381.088L383.742 380.656C383.79 379.776 384.022 379.024 384.438 378.4C384.87 377.76 385.422 377.264 386.094 376.912C386.766 376.544 387.502 376.36 388.302 376.36C389.134 376.36 389.878 376.536 390.534 376.888C391.19 377.24 391.71 377.736 392.094 378.376C392.494 379.016 392.694 379.784 392.694 380.68V388H390.51ZM402.354 388.24C401.218 388.24 400.194 387.984 399.282 387.472C398.37 386.944 397.65 386.232 397.122 385.336C396.594 384.44 396.33 383.424 396.33 382.288C396.33 381.168 396.586 380.16 397.098 379.264C397.626 378.368 398.33 377.664 399.21 377.152C400.106 376.624 401.106 376.36 402.21 376.36C403.266 376.36 404.194 376.6 404.994 377.08C405.81 377.56 406.442 378.224 406.89 379.072C407.354 379.92 407.586 380.88 407.586 381.952C407.586 382.112 407.578 382.288 407.562 382.48C407.546 382.656 407.514 382.864 407.466 383.104H397.842V381.304H406.314L405.522 382C405.522 381.232 405.386 380.584 405.114 380.056C404.842 379.512 404.458 379.096 403.962 378.808C403.466 378.504 402.866 378.352 402.162 378.352C401.426 378.352 400.778 378.512 400.218 378.832C399.658 379.152 399.226 379.6 398.922 380.176C398.618 380.752 398.466 381.432 398.466 382.216C398.466 383.016 398.626 383.72 398.946 384.328C399.266 384.92 399.722 385.384 400.314 385.72C400.906 386.04 401.586 386.2 402.354 386.2C402.994 386.2 403.578 386.088 404.106 385.864C404.65 385.64 405.114 385.304 405.498 384.856L406.89 386.272C406.346 386.912 405.674 387.4 404.874 387.736C404.09 388.072 403.25 388.24 402.354 388.24ZM412.781 388V371.824H414.941V388H412.781ZM409.973 378.568V376.6H417.749V378.568H409.973ZM432.945 388.24C431.825 388.24 430.809 387.976 429.897 387.448C429.001 386.92 428.289 386.208 427.761 385.312C427.249 384.4 426.993 383.392 426.993 382.288C426.993 381.168 427.249 380.16 427.761 379.264C428.289 378.368 429.001 377.664 429.897 377.152C430.809 376.624 431.825 376.36 432.945 376.36C433.825 376.36 434.641 376.528 435.393 376.864C436.145 377.184 436.793 377.656 437.337 378.28L435.897 379.72C435.545 379.304 435.113 378.992 434.601 378.784C434.105 378.56 433.553 378.448 432.945 378.448C432.225 378.448 431.585 378.616 431.025 378.952C430.465 379.272 430.025 379.72 429.705 380.296C429.385 380.872 429.225 381.536 429.225 382.288C429.225 383.04 429.385 383.704 429.705 384.28C430.025 384.856 430.465 385.312 431.025 385.648C431.585 385.984 432.225 386.152 432.945 386.152C433.553 386.152 434.105 386.048 434.601 385.84C435.113 385.616 435.553 385.296 435.921 384.88L437.337 386.32C436.809 386.928 436.161 387.4 435.393 387.736C434.641 388.072 433.825 388.24 432.945 388.24ZM445.893 388.24C444.773 388.24 443.765 387.976 442.869 387.448C441.973 386.92 441.261 386.208 440.733 385.312C440.205 384.4 439.941 383.384 439.941 382.264C439.941 381.16 440.205 380.168 440.733 379.288C441.261 378.392 441.973 377.68 442.869 377.152C443.765 376.624 444.773 376.36 445.893 376.36C446.997 376.36 447.997 376.624 448.893 377.152C449.805 377.664 450.525 378.368 451.053 379.264C451.581 380.16 451.845 381.16 451.845 382.264C451.845 383.384 451.581 384.4 451.053 385.312C450.525 386.208 449.805 386.92 448.893 387.448C447.997 387.976 446.997 388.24 445.893 388.24ZM445.893 386.152C446.613 386.152 447.253 385.984 447.813 385.648C448.373 385.312 448.813 384.856 449.133 384.28C449.453 383.688 449.613 383.016 449.613 382.264C449.613 381.528 449.445 380.872 449.109 380.296C448.789 379.72 448.349 379.272 447.789 378.952C447.245 378.616 446.613 378.448 445.893 378.448C445.173 378.448 444.533 378.616 443.973 378.952C443.413 379.272 442.973 379.72 442.653 380.296C442.333 380.872 442.173 381.528 442.173 382.264C442.173 383.016 442.333 383.688 442.653 384.28C442.973 384.856 443.413 385.312 443.973 385.648C444.533 385.984 445.173 386.152 445.893 386.152ZM463.783 388V381.352C463.783 380.488 463.511 379.776 462.967 379.216C462.423 378.656 461.719 378.376 460.855 378.376C460.279 378.376 459.767 378.504 459.319 378.76C458.871 379.016 458.519 379.368 458.263 379.816C458.007 380.264 457.879 380.776 457.879 381.352L456.991 380.848C456.991 379.984 457.183 379.216 457.567 378.544C457.951 377.872 458.487 377.344 459.175 376.96C459.863 376.56 460.639 376.36 461.503 376.36C462.367 376.36 463.127 376.576 463.783 377.008C464.455 377.44 464.983 378.008 465.367 378.712C465.751 379.4 465.943 380.136 465.943 380.92V388H463.783ZM455.719 388V376.6H457.879V388H455.719ZM473.931 388.24C473.291 388.24 472.683 388.16 472.107 388C471.547 387.824 471.027 387.584 470.547 387.28C470.067 386.96 469.651 386.584 469.299 386.152L470.691 384.76C471.107 385.272 471.587 385.656 472.131 385.912C472.675 386.152 473.283 386.272 473.955 386.272C474.627 386.272 475.147 386.16 475.515 385.936C475.883 385.696 476.067 385.368 476.067 384.952C476.067 384.536 475.915 384.216 475.611 383.992C475.323 383.752 474.947 383.56 474.483 383.416C474.019 383.256 473.523 383.104 472.995 382.96C472.483 382.8 471.995 382.6 471.531 382.36C471.067 382.12 470.683 381.792 470.379 381.376C470.091 380.96 469.947 380.408 469.947 379.72C469.947 379.032 470.115 378.44 470.451 377.944C470.787 377.432 471.251 377.04 471.843 376.768C472.451 376.496 473.179 376.36 474.027 376.36C474.923 376.36 475.715 376.52 476.403 376.84C477.107 377.144 477.683 377.608 478.131 378.232L476.739 379.624C476.419 379.208 476.019 378.888 475.539 378.664C475.075 378.44 474.547 378.328 473.955 378.328C473.331 378.328 472.851 378.44 472.515 378.664C472.195 378.872 472.035 379.168 472.035 379.552C472.035 379.936 472.179 380.232 472.467 380.44C472.755 380.648 473.131 380.824 473.595 380.968C474.075 381.112 474.571 381.264 475.083 381.424C475.595 381.568 476.083 381.768 476.547 382.024C477.011 382.28 477.387 382.624 477.675 383.056C477.979 383.488 478.131 384.056 478.131 384.76C478.131 385.832 477.747 386.68 476.979 387.304C476.227 387.928 475.211 388.24 473.931 388.24ZM487.27 388.24C486.134 388.24 485.11 387.984 484.198 387.472C483.286 386.944 482.566 386.232 482.038 385.336C481.51 384.44 481.246 383.424 481.246 382.288C481.246 381.168 481.502 380.16 482.014 379.264C482.542 378.368 483.246 377.664 484.126 377.152C485.022 376.624 486.022 376.36 487.126 376.36C488.182 376.36 489.11 376.6 489.91 377.08C490.726 377.56 491.358 378.224 491.806 379.072C492.27 379.92 492.502 380.88 492.502 381.952C492.502 382.112 492.494 382.288 492.478 382.48C492.462 382.656 492.43 382.864 492.382 383.104H482.758V381.304H491.23L490.438 382C490.438 381.232 490.302 380.584 490.03 380.056C489.758 379.512 489.374 379.096 488.878 378.808C488.382 378.504 487.782 378.352 487.078 378.352C486.342 378.352 485.694 378.512 485.134 378.832C484.574 379.152 484.142 379.6 483.838 380.176C483.534 380.752 483.382 381.432 483.382 382.216C483.382 383.016 483.542 383.72 483.862 384.328C484.182 384.92 484.638 385.384 485.23 385.72C485.822 386.04 486.502 386.2 487.27 386.2C487.91 386.2 488.494 386.088 489.022 385.864C489.566 385.64 490.03 385.304 490.414 384.856L491.806 386.272C491.262 386.912 490.59 387.4 489.79 387.736C489.006 388.072 488.166 388.24 487.27 388.24ZM501.505 388.24C500.385 388.24 499.369 387.976 498.457 387.448C497.561 386.92 496.849 386.208 496.321 385.312C495.809 384.4 495.553 383.392 495.553 382.288C495.553 381.168 495.809 380.16 496.321 379.264C496.849 378.368 497.561 377.664 498.457 377.152C499.369 376.624 500.385 376.36 501.505 376.36C502.385 376.36 503.201 376.528 503.953 376.864C504.705 377.184 505.353 377.656 505.897 378.28L504.457 379.72C504.105 379.304 503.673 378.992 503.161 378.784C502.665 378.56 502.113 378.448 501.505 378.448C500.785 378.448 500.145 378.616 499.585 378.952C499.025 379.272 498.585 379.72 498.265 380.296C497.945 380.872 497.785 381.536 497.785 382.288C497.785 383.04 497.945 383.704 498.265 384.28C498.585 384.856 499.025 385.312 499.585 385.648C500.145 385.984 500.785 386.152 501.505 386.152C502.113 386.152 502.665 386.048 503.161 385.84C503.673 385.616 504.113 385.296 504.481 384.88L505.897 386.32C505.369 386.928 504.721 387.4 503.953 387.736C503.201 388.072 502.385 388.24 501.505 388.24ZM511.09 388V371.824H513.25V388H511.09ZM508.282 378.568V376.6H516.058V378.568H508.282ZM524.543 388.24C523.407 388.24 522.383 387.984 521.471 387.472C520.559 386.944 519.839 386.232 519.311 385.336C518.783 384.44 518.519 383.424 518.519 382.288C518.519 381.168 518.775 380.16 519.287 379.264C519.815 378.368 520.519 377.664 521.399 377.152C522.295 376.624 523.295 376.36 524.399 376.36C525.455 376.36 526.383 376.6 527.183 377.08C527.999 377.56 528.631 378.224 529.079 379.072C529.543 379.92 529.775 380.88 529.775 381.952C529.775 382.112 529.767 382.288 529.751 382.48C529.735 382.656 529.703 382.864 529.655 383.104H520.031V381.304H528.503L527.711 382C527.711 381.232 527.575 380.584 527.303 380.056C527.031 379.512 526.647 379.096 526.151 378.808C525.655 378.504 525.055 378.352 524.351 378.352C523.615 378.352 522.967 378.512 522.407 378.832C521.847 379.152 521.415 379.6 521.111 380.176C520.807 380.752 520.655 381.432 520.655 382.216C520.655 383.016 520.815 383.72 521.135 384.328C521.455 384.92 521.911 385.384 522.503 385.72C523.095 386.04 523.775 386.2 524.543 386.2C525.183 386.2 525.767 386.088 526.295 385.864C526.839 385.64 527.303 385.304 527.687 384.856L529.079 386.272C528.535 386.912 527.863 387.4 527.063 387.736C526.279 388.072 525.439 388.24 524.543 388.24ZM534.97 388V371.824H537.13V388H534.97ZM532.162 378.568V376.6H539.938V378.568H532.162ZM548.078 388.24C547.15 388.24 546.31 388.032 545.558 387.616C544.822 387.184 544.246 386.592 543.83 385.84C543.414 385.088 543.206 384.216 543.206 383.224V376.6H545.366V383.128C545.366 383.752 545.47 384.296 545.678 384.76C545.902 385.208 546.222 385.552 546.638 385.792C547.054 386.032 547.542 386.152 548.102 386.152C548.95 386.152 549.614 385.888 550.094 385.36C550.574 384.816 550.814 384.072 550.814 383.128V376.6H552.974V383.224C552.974 384.216 552.766 385.088 552.35 385.84C551.934 386.592 551.358 387.184 550.622 387.616C549.902 388.032 549.054 388.24 548.078 388.24ZM557.309 388V376.6H559.469V388H557.309ZM559.469 381.496L558.653 381.136C558.653 379.68 558.989 378.52 559.661 377.656C560.333 376.792 561.301 376.36 562.565 376.36C563.141 376.36 563.661 376.464 564.125 376.672C564.589 376.864 565.021 377.192 565.421 377.656L564.005 379.12C563.765 378.864 563.501 378.68 563.213 378.568C562.925 378.456 562.589 378.4 562.205 378.4C561.405 378.4 560.749 378.656 560.237 379.168C559.725 379.68 559.469 380.456 559.469 381.496ZM580.084 388.24C579.044 388.24 578.1 387.984 577.252 387.472C576.404 386.944 575.732 386.232 575.236 385.336C574.756 384.44 574.516 383.432 574.516 382.312C574.516 381.192 574.756 380.184 575.236 379.288C575.732 378.392 576.396 377.68 577.228 377.152C578.076 376.624 579.028 376.36 580.084 376.36C580.948 376.36 581.716 376.544 582.388 376.912C583.076 377.264 583.628 377.76 584.044 378.4C584.46 379.024 584.692 379.752 584.74 380.584V384.016C584.692 384.832 584.46 385.56 584.044 386.2C583.644 386.84 583.1 387.344 582.412 387.712C581.74 388.064 580.964 388.24 580.084 388.24ZM580.444 386.2C581.516 386.2 582.38 385.84 583.036 385.12C583.692 384.384 584.02 383.448 584.02 382.312C584.02 381.528 583.868 380.848 583.564 380.272C583.276 379.68 582.86 379.224 582.316 378.904C581.772 378.568 581.14 378.4 580.42 378.4C579.7 378.4 579.06 378.568 578.5 378.904C577.956 379.24 577.524 379.704 577.204 380.296C576.9 380.872 576.748 381.536 576.748 382.288C576.748 383.056 576.9 383.736 577.204 384.328C577.524 384.904 577.964 385.36 578.524 385.696C579.084 386.032 579.724 386.2 580.444 386.2ZM583.876 388V384.928L584.284 382.144L583.876 379.384V376.6H586.06V388H583.876ZM595.469 388.24C594.413 388.24 593.469 387.984 592.637 387.472C591.805 386.944 591.141 386.232 590.645 385.336C590.165 384.44 589.925 383.432 589.925 382.312C589.925 381.192 590.165 380.184 590.645 379.288C591.141 378.392 591.805 377.68 592.637 377.152C593.469 376.624 594.413 376.36 595.469 376.36C596.317 376.36 597.085 376.544 597.773 376.912C598.461 377.264 599.013 377.76 599.429 378.4C599.861 379.024 600.101 379.752 600.149 380.584V384.016C600.101 384.832 599.869 385.56 599.453 386.2C599.037 386.84 598.485 387.344 597.797 387.712C597.109 388.064 596.333 388.24 595.469 388.24ZM595.829 386.2C596.549 386.2 597.173 386.032 597.701 385.696C598.245 385.36 598.669 384.904 598.973 384.328C599.277 383.736 599.429 383.064 599.429 382.312C599.429 381.528 599.269 380.848 598.949 380.272C598.645 379.696 598.221 379.24 597.677 378.904C597.149 378.568 596.525 378.4 595.805 378.4C595.085 378.4 594.453 378.568 593.909 378.904C593.365 379.24 592.933 379.704 592.613 380.296C592.309 380.872 592.157 381.536 592.157 382.288C592.157 383.056 592.309 383.736 592.613 384.328C592.933 384.904 593.365 385.36 593.909 385.696C594.469 386.032 595.109 386.2 595.829 386.2ZM601.469 388H599.285V384.928L599.693 382.144L599.285 379.384V370.864H601.469V388ZM606.078 388V376.6H608.238V388H606.078ZM607.158 374.32C606.758 374.32 606.43 374.192 606.174 373.936C605.918 373.664 605.79 373.328 605.79 372.928C605.79 372.544 605.918 372.224 606.174 371.968C606.43 371.696 606.758 371.56 607.158 371.56C607.558 371.56 607.886 371.696 608.142 371.968C608.398 372.224 608.526 372.544 608.526 372.928C608.526 373.328 608.398 373.664 608.142 373.936C607.886 374.192 607.558 374.32 607.158 374.32ZM618.861 388.24C617.997 388.24 617.213 388.064 616.509 387.712C615.821 387.344 615.269 386.84 614.853 386.2C614.437 385.56 614.205 384.832 614.157 384.016V380.584C614.205 379.752 614.437 379.024 614.853 378.4C615.285 377.76 615.845 377.264 616.533 376.912C617.237 376.544 618.013 376.36 618.861 376.36C619.901 376.36 620.837 376.624 621.669 377.152C622.517 377.68 623.181 378.392 623.661 379.288C624.141 380.184 624.381 381.192 624.381 382.312C624.381 383.432 624.141 384.44 623.661 385.336C623.181 386.232 622.517 386.944 621.669 387.472C620.837 387.984 619.901 388.24 618.861 388.24ZM612.861 392.776V376.6H615.021V379.6L614.613 382.36L615.021 385.144V392.776H612.861ZM618.501 386.2C619.221 386.2 619.853 386.032 620.397 385.696C620.941 385.36 621.373 384.904 621.693 384.328C622.013 383.736 622.173 383.056 622.173 382.288C622.173 381.536 622.013 380.864 621.693 380.272C621.373 379.68 620.941 379.224 620.397 378.904C619.853 378.568 619.229 378.4 618.525 378.4C617.805 378.4 617.173 378.568 616.629 378.904C616.085 379.224 615.661 379.68 615.357 380.272C615.053 380.864 614.901 381.544 614.901 382.312C614.901 383.064 615.045 383.736 615.333 384.328C615.637 384.904 616.061 385.36 616.605 385.696C617.165 386.032 617.797 386.2 618.501 386.2ZM628.294 388V376.6H630.454V388H628.294ZM629.374 374.32C628.974 374.32 628.646 374.192 628.39 373.936C628.134 373.664 628.006 373.328 628.006 372.928C628.006 372.544 628.134 372.224 628.39 371.968C628.646 371.696 628.974 371.56 629.374 371.56C629.774 371.56 630.102 371.696 630.358 371.968C630.614 372.224 630.742 372.544 630.742 372.928C630.742 373.328 630.614 373.664 630.358 373.936C630.102 374.192 629.774 374.32 629.374 374.32ZM638.701 388.24C638.061 388.24 637.453 388.16 636.877 388C636.317 387.824 635.797 387.584 635.317 387.28C634.837 386.96 634.421 386.584 634.069 386.152L635.461 384.76C635.877 385.272 636.357 385.656 636.901 385.912C637.445 386.152 638.053 386.272 638.725 386.272C639.397 386.272 639.917 386.16 640.285 385.936C640.653 385.696 640.837 385.368 640.837 384.952C640.837 384.536 640.685 384.216 640.381 383.992C640.093 383.752 639.717 383.56 639.253 383.416C638.789 383.256 638.293 383.104 637.765 382.96C637.253 382.8 636.765 382.6 636.301 382.36C635.837 382.12 635.453 381.792 635.149 381.376C634.861 380.96 634.717 380.408 634.717 379.72C634.717 379.032 634.885 378.44 635.221 377.944C635.557 377.432 636.021 377.04 636.613 376.768C637.221 376.496 637.949 376.36 638.797 376.36C639.693 376.36 640.485 376.52 641.173 376.84C641.877 377.144 642.453 377.608 642.901 378.232L641.509 379.624C641.189 379.208 640.789 378.888 640.309 378.664C639.845 378.44 639.317 378.328 638.725 378.328C638.101 378.328 637.621 378.44 637.285 378.664C636.965 378.872 636.805 379.168 636.805 379.552C636.805 379.936 636.949 380.232 637.237 380.44C637.525 380.648 637.901 380.824 638.365 380.968C638.845 381.112 639.341 381.264 639.853 381.424C640.365 381.568 640.853 381.768 641.317 382.024C641.781 382.28 642.157 382.624 642.445 383.056C642.749 383.488 642.901 384.056 642.901 384.76C642.901 385.832 642.517 386.68 641.749 387.304C640.997 387.928 639.981 388.24 638.701 388.24ZM651.967 388.24C650.847 388.24 649.831 387.976 648.919 387.448C648.023 386.92 647.311 386.208 646.783 385.312C646.271 384.4 646.015 383.392 646.015 382.288C646.015 381.168 646.271 380.16 646.783 379.264C647.311 378.368 648.023 377.664 648.919 377.152C649.831 376.624 650.847 376.36 651.967 376.36C652.847 376.36 653.663 376.528 654.415 376.864C655.167 377.184 655.815 377.656 656.359 378.28L654.919 379.72C654.567 379.304 654.135 378.992 653.623 378.784C653.127 378.56 652.575 378.448 651.967 378.448C651.247 378.448 650.607 378.616 650.047 378.952C649.487 379.272 649.047 379.72 648.727 380.296C648.407 380.872 648.247 381.536 648.247 382.288C648.247 383.04 648.407 383.704 648.727 384.28C649.047 384.856 649.487 385.312 650.047 385.648C650.607 385.984 651.247 386.152 651.967 386.152C652.575 386.152 653.127 386.048 653.623 385.84C654.135 385.616 654.575 385.296 654.943 384.88L656.359 386.32C655.831 386.928 655.183 387.4 654.415 387.736C653.663 388.072 652.847 388.24 651.967 388.24ZM659.965 388V376.6H662.125V388H659.965ZM661.045 374.32C660.645 374.32 660.317 374.192 660.061 373.936C659.805 373.664 659.677 373.328 659.677 372.928C659.677 372.544 659.805 372.224 660.061 371.968C660.317 371.696 660.645 371.56 661.045 371.56C661.445 371.56 661.773 371.696 662.029 371.968C662.285 372.224 662.413 372.544 662.413 372.928C662.413 373.328 662.285 373.664 662.029 373.936C661.773 374.192 661.445 374.32 661.045 374.32ZM674.812 388V381.352C674.812 380.488 674.54 379.776 673.996 379.216C673.452 378.656 672.748 378.376 671.884 378.376C671.308 378.376 670.796 378.504 670.348 378.76C669.9 379.016 669.548 379.368 669.292 379.816C669.036 380.264 668.908 380.776 668.908 381.352L668.02 380.848C668.02 379.984 668.212 379.216 668.596 378.544C668.98 377.872 669.516 377.344 670.204 376.96C670.892 376.56 671.668 376.36 672.532 376.36C673.396 376.36 674.156 376.576 674.812 377.008C675.484 377.44 676.012 378.008 676.396 378.712C676.78 379.4 676.972 380.136 676.972 380.92V388H674.812ZM666.748 388V376.6H668.908V388H666.748ZM686.065 393.016C684.897 393.016 683.857 392.8 682.945 392.368C682.049 391.936 681.329 391.328 680.785 390.544L682.177 389.128C682.641 389.72 683.193 390.168 683.833 390.472C684.473 390.792 685.233 390.952 686.113 390.952C687.281 390.952 688.201 390.64 688.873 390.016C689.561 389.408 689.905 388.584 689.905 387.544V384.712L690.289 382.144L689.905 379.6V376.6H692.065V387.544C692.065 388.632 691.809 389.584 691.297 390.4C690.801 391.216 690.097 391.856 689.185 392.32C688.289 392.784 687.249 393.016 686.065 393.016ZM686.065 387.808C685.025 387.808 684.089 387.56 683.257 387.064C682.441 386.568 681.793 385.888 681.313 385.024C680.833 384.144 680.593 383.16 680.593 382.072C680.593 380.984 680.833 380.016 681.313 379.168C681.793 378.304 682.441 377.624 683.257 377.128C684.089 376.616 685.025 376.36 686.065 376.36C686.961 376.36 687.753 376.536 688.441 376.888C689.129 377.24 689.673 377.736 690.073 378.376C690.489 379 690.713 379.736 690.745 380.584V383.608C690.697 384.44 690.465 385.176 690.049 385.816C689.649 386.44 689.105 386.928 688.417 387.28C687.729 387.632 686.945 387.808 686.065 387.808ZM686.497 385.768C687.201 385.768 687.817 385.616 688.345 385.312C688.889 385.008 689.305 384.584 689.593 384.04C689.881 383.48 690.025 382.832 690.025 382.096C690.025 381.36 689.873 380.72 689.569 380.176C689.281 379.616 688.873 379.184 688.345 378.88C687.817 378.56 687.193 378.4 686.473 378.4C685.753 378.4 685.121 378.56 684.577 378.88C684.033 379.184 683.601 379.616 683.281 380.176C682.977 380.72 682.825 381.352 682.825 382.072C682.825 382.792 682.977 383.432 683.281 383.992C683.601 384.552 684.033 384.992 684.577 385.312C685.137 385.616 685.777 385.768 686.497 385.768ZM708.387 388.24C707.251 388.24 706.227 387.984 705.315 387.472C704.403 386.944 703.683 386.232 703.155 385.336C702.627 384.44 702.363 383.424 702.363 382.288C702.363 381.168 702.619 380.16 703.131 379.264C703.659 378.368 704.363 377.664 705.243 377.152C706.139 376.624 707.139 376.36 708.243 376.36C709.299 376.36 710.227 376.6 711.027 377.08C711.843 377.56 712.475 378.224 712.923 379.072C713.387 379.92 713.619 380.88 713.619 381.952C713.619 382.112 713.611 382.288 713.595 382.48C713.579 382.656 713.547 382.864 713.499 383.104H703.875V381.304H712.347L711.555 382C711.555 381.232 711.419 380.584 711.147 380.056C710.875 379.512 710.491 379.096 709.995 378.808C709.499 378.504 708.899 378.352 708.195 378.352C707.459 378.352 706.811 378.512 706.251 378.832C705.691 379.152 705.259 379.6 704.955 380.176C704.651 380.752 704.499 381.432 704.499 382.216C704.499 383.016 704.659 383.72 704.979 384.328C705.299 384.92 705.755 385.384 706.347 385.72C706.939 386.04 707.619 386.2 708.387 386.2C709.027 386.2 709.611 386.088 710.139 385.864C710.683 385.64 711.147 385.304 711.531 384.856L712.923 386.272C712.379 386.912 711.707 387.4 710.907 387.736C710.123 388.072 709.283 388.24 708.387 388.24ZM717.415 388V370.864H719.575V388H717.415ZM724.199 388V376.6H726.359V388H724.199ZM725.279 374.32C724.879 374.32 724.551 374.192 724.295 373.936C724.039 373.664 723.911 373.328 723.911 372.928C723.911 372.544 724.039 372.224 724.295 371.968C724.551 371.696 724.879 371.56 725.279 371.56C725.679 371.56 726.007 371.696 726.263 371.968C726.519 372.224 726.647 372.544 726.647 372.928C726.647 373.328 726.519 373.664 726.263 373.936C726.007 374.192 725.679 374.32 725.279 374.32ZM732.734 388V371.824H734.894V388H732.734ZM729.926 378.568V376.6H737.702V378.568H729.926ZM752.274 388.24C751.346 388.24 750.506 388.032 749.754 387.616C749.018 387.184 748.442 386.592 748.026 385.84C747.61 385.088 747.402 384.216 747.402 383.224V376.6H749.562V383.128C749.562 383.752 749.666 384.296 749.874 384.76C750.098 385.208 750.418 385.552 750.834 385.792C751.25 386.032 751.738 386.152 752.298 386.152C753.146 386.152 753.81 385.888 754.29 385.36C754.77 384.816 755.01 384.072 755.01 383.128V376.6H757.17V383.224C757.17 384.216 756.962 385.088 756.546 385.84C756.13 386.592 755.554 387.184 754.818 387.616C754.098 388.032 753.25 388.24 752.274 388.24ZM763.257 388V371.824H765.417V388H763.257ZM760.449 378.568V376.6H768.225V378.568H760.449ZM99.208 412.24C98.568 412.24 97.96 412.16 97.384 412C96.824 411.824 96.304 411.584 95.824 411.28C95.344 410.96 94.928 410.584 94.576 410.152L95.968 408.76C96.384 409.272 96.864 409.656 97.408 409.912C97.952 410.152 98.56 410.272 99.232 410.272C99.904 410.272 100.424 410.16 100.792 409.936C101.16 409.696 101.344 409.368 101.344 408.952C101.344 408.536 101.192 408.216 100.888 407.992C100.6 407.752 100.224 407.56 99.76 407.416C99.296 407.256 98.8 407.104 98.272 406.96C97.76 406.8 97.272 406.6 96.808 406.36C96.344 406.12 95.96 405.792 95.656 405.376C95.368 404.96 95.224 404.408 95.224 403.72C95.224 403.032 95.392 402.44 95.728 401.944C96.064 401.432 96.528 401.04 97.12 400.768C97.728 400.496 98.456 400.36 99.304 400.36C100.2 400.36 100.992 400.52 101.68 400.84C102.384 401.144 102.96 401.608 103.408 402.232L102.016 403.624C101.696 403.208 101.296 402.888 100.816 402.664C100.352 402.44 99.824 402.328 99.232 402.328C98.608 402.328 98.128 402.44 97.792 402.664C97.472 402.872 97.312 403.168 97.312 403.552C97.312 403.936 97.456 404.232 97.744 404.44C98.032 404.648 98.408 404.824 98.872 404.968C99.352 405.112 99.848 405.264 100.36 405.424C100.872 405.568 101.36 405.768 101.824 406.024C102.288 406.28 102.664 406.624 102.952 407.056C103.256 407.488 103.408 408.056 103.408 408.76C103.408 409.832 103.024 410.68 102.256 411.304C101.504 411.928 100.488 412.24 99.208 412.24ZM112.546 412.24C111.41 412.24 110.386 411.984 109.474 411.472C108.562 410.944 107.842 410.232 107.314 409.336C106.786 408.44 106.522 407.424 106.522 406.288C106.522 405.168 106.778 404.16 107.29 403.264C107.818 402.368 108.522 401.664 109.402 401.152C110.298 400.624 111.298 400.36 112.402 400.36C113.458 400.36 114.386 400.6 115.186 401.08C116.002 401.56 116.634 402.224 117.082 403.072C117.546 403.92 117.778 404.88 117.778 405.952C117.778 406.112 117.77 406.288 117.754 406.48C117.738 406.656 117.706 406.864 117.658 407.104H108.034V405.304H116.506L115.714 406C115.714 405.232 115.578 404.584 115.306 404.056C115.034 403.512 114.65 403.096 114.154 402.808C113.658 402.504 113.058 402.352 112.354 402.352C111.618 402.352 110.97 402.512 110.41 402.832C109.85 403.152 109.418 403.6 109.114 404.176C108.81 404.752 108.658 405.432 108.658 406.216C108.658 407.016 108.818 407.72 109.138 408.328C109.458 408.92 109.914 409.384 110.506 409.72C111.098 410.04 111.778 410.2 112.546 410.2C113.186 410.2 113.77 410.088 114.298 409.864C114.842 409.64 115.306 409.304 115.69 408.856L117.082 410.272C116.538 410.912 115.866 411.4 115.066 411.736C114.282 412.072 113.442 412.24 112.546 412.24ZM126.397 412.24C125.341 412.24 124.397 411.984 123.565 411.472C122.733 410.944 122.069 410.232 121.573 409.336C121.093 408.44 120.853 407.432 120.853 406.312C120.853 405.192 121.093 404.184 121.573 403.288C122.069 402.392 122.733 401.68 123.565 401.152C124.397 400.624 125.341 400.36 126.397 400.36C127.245 400.36 128.013 400.544 128.701 400.912C129.389 401.264 129.941 401.76 130.357 402.4C130.789 403.024 131.029 403.752 131.077 404.584V408.016C131.029 408.832 130.797 409.56 130.381 410.2C129.965 410.84 129.413 411.344 128.725 411.712C128.037 412.064 127.261 412.24 126.397 412.24ZM126.757 410.2C127.477 410.2 128.101 410.032 128.629 409.696C129.173 409.36 129.597 408.904 129.901 408.328C130.205 407.736 130.357 407.064 130.357 406.312C130.357 405.528 130.197 404.848 129.877 404.272C129.573 403.696 129.149 403.24 128.605 402.904C128.077 402.568 127.453 402.4 126.733 402.4C126.013 402.4 125.381 402.568 124.837 402.904C124.293 403.24 123.861 403.704 123.541 404.296C123.237 404.872 123.085 405.536 123.085 406.288C123.085 407.056 123.237 407.736 123.541 408.328C123.861 408.904 124.293 409.36 124.837 409.696C125.397 410.032 126.037 410.2 126.757 410.2ZM132.397 412H130.213V408.928L130.621 406.144L130.213 403.384V394.864H132.397V412ZM143.414 412V400.6H145.574V412H143.414ZM151.118 412V405.112C151.118 404.264 150.854 403.6 150.326 403.12C149.814 402.624 149.166 402.376 148.382 402.376C147.854 402.376 147.382 402.488 146.966 402.712C146.55 402.936 146.214 403.248 145.958 403.648C145.702 404.048 145.574 404.528 145.574 405.088L144.686 404.656C144.686 403.792 144.87 403.04 145.238 402.4C145.622 401.76 146.142 401.264 146.798 400.912C147.454 400.544 148.19 400.36 149.006 400.36C149.806 400.36 150.526 400.536 151.166 400.888C151.822 401.24 152.334 401.736 152.702 402.376C153.086 403.016 153.278 403.776 153.278 404.656V412H151.118ZM158.822 412V405.112C158.822 404.264 158.558 403.6 158.03 403.12C157.518 402.624 156.878 402.376 156.11 402.376C155.582 402.376 155.102 402.488 154.67 402.712C154.254 402.936 153.918 403.248 153.662 403.648C153.406 404.048 153.278 404.528 153.278 405.088L152.054 404.656C152.102 403.776 152.334 403.024 152.75 402.4C153.182 401.76 153.734 401.264 154.406 400.912C155.078 400.544 155.814 400.36 156.614 400.36C157.446 400.36 158.19 400.536 158.846 400.888C159.502 401.24 160.022 401.736 160.406 402.376C160.806 403.016 161.006 403.784 161.006 404.68V412H158.822ZM170.234 412.24C169.194 412.24 168.25 411.984 167.402 411.472C166.554 410.944 165.882 410.232 165.386 409.336C164.906 408.44 164.666 407.432 164.666 406.312C164.666 405.192 164.906 404.184 165.386 403.288C165.882 402.392 166.546 401.68 167.378 401.152C168.226 400.624 169.178 400.36 170.234 400.36C171.098 400.36 171.866 400.544 172.538 400.912C173.226 401.264 173.778 401.76 174.194 402.4C174.61 403.024 174.842 403.752 174.89 404.584V408.016C174.842 408.832 174.61 409.56 174.194 410.2C173.794 410.84 173.25 411.344 172.562 411.712C171.89 412.064 171.114 412.24 170.234 412.24ZM170.594 410.2C171.666 410.2 172.53 409.84 173.186 409.12C173.842 408.384 174.17 407.448 174.17 406.312C174.17 405.528 174.018 404.848 173.714 404.272C173.426 403.68 173.01 403.224 172.466 402.904C171.922 402.568 171.29 402.4 170.57 402.4C169.85 402.4 169.21 402.568 168.65 402.904C168.106 403.24 167.674 403.704 167.354 404.296C167.05 404.872 166.898 405.536 166.898 406.288C166.898 407.056 167.05 407.736 167.354 408.328C167.674 408.904 168.114 409.36 168.674 409.696C169.234 410.032 169.874 410.2 170.594 410.2ZM174.026 412V408.928L174.434 406.144L174.026 403.384V400.6H176.21V412H174.026ZM185.378 412.24C184.45 412.24 183.61 412.032 182.858 411.616C182.122 411.184 181.546 410.592 181.13 409.84C180.714 409.088 180.506 408.216 180.506 407.224V400.6H182.666V407.128C182.666 407.752 182.77 408.296 182.978 408.76C183.202 409.208 183.522 409.552 183.938 409.792C184.354 410.032 184.842 410.152 185.402 410.152C186.25 410.152 186.914 409.888 187.394 409.36C187.874 408.816 188.114 408.072 188.114 407.128V400.6H190.274V407.224C190.274 408.216 190.066 409.088 189.65 409.84C189.234 410.592 188.658 411.184 187.922 411.616C187.202 412.032 186.354 412.24 185.378 412.24ZM194.609 412V400.6H196.769V412H194.609ZM196.769 405.496L195.953 405.136C195.953 403.68 196.289 402.52 196.961 401.656C197.633 400.792 198.601 400.36 199.865 400.36C200.441 400.36 200.961 400.464 201.425 400.672C201.889 400.864 202.321 401.192 202.721 401.656L201.305 403.12C201.065 402.864 200.801 402.68 200.513 402.568C200.225 402.456 199.889 402.4 199.505 402.4C198.705 402.4 198.049 402.656 197.537 403.168C197.025 403.68 196.769 404.456 196.769 405.496ZM205.706 412V400.6H207.866V412H205.706ZM206.786 398.32C206.386 398.32 206.058 398.192 205.802 397.936C205.546 397.664 205.418 397.328 205.418 396.928C205.418 396.544 205.546 396.224 205.802 395.968C206.058 395.696 206.386 395.56 206.786 395.56C207.186 395.56 207.514 395.696 207.77 395.968C208.026 396.224 208.154 396.544 208.154 396.928C208.154 397.328 208.026 397.664 207.77 397.936C207.514 398.192 207.186 398.32 206.786 398.32ZM216.113 412.24C215.473 412.24 214.865 412.16 214.289 412C213.729 411.824 213.209 411.584 212.729 411.28C212.249 410.96 211.833 410.584 211.481 410.152L212.873 408.76C213.289 409.272 213.769 409.656 214.313 409.912C214.857 410.152 215.465 410.272 216.137 410.272C216.809 410.272 217.329 410.16 217.697 409.936C218.065 409.696 218.249 409.368 218.249 408.952C218.249 408.536 218.097 408.216 217.793 407.992C217.505 407.752 217.129 407.56 216.665 407.416C216.201 407.256 215.705 407.104 215.177 406.96C214.665 406.8 214.177 406.6 213.713 406.36C213.249 406.12 212.865 405.792 212.561 405.376C212.273 404.96 212.129 404.408 212.129 403.72C212.129 403.032 212.297 402.44 212.633 401.944C212.969 401.432 213.433 401.04 214.025 400.768C214.633 400.496 215.361 400.36 216.209 400.36C217.105 400.36 217.897 400.52 218.585 400.84C219.289 401.144 219.865 401.608 220.313 402.232L218.921 403.624C218.601 403.208 218.201 402.888 217.721 402.664C217.257 402.44 216.729 402.328 216.137 402.328C215.513 402.328 215.033 402.44 214.697 402.664C214.377 402.872 214.217 403.168 214.217 403.552C214.217 403.936 214.361 404.232 214.649 404.44C214.937 404.648 215.313 404.824 215.777 404.968C216.257 405.112 216.753 405.264 217.265 405.424C217.777 405.568 218.265 405.768 218.729 406.024C219.193 406.28 219.569 406.624 219.857 407.056C220.161 407.488 220.313 408.056 220.313 408.76C220.313 409.832 219.929 410.68 219.161 411.304C218.409 411.928 217.393 412.24 216.113 412.24ZM235.188 412.24C234.26 412.24 233.42 412.032 232.668 411.616C231.932 411.184 231.356 410.592 230.94 409.84C230.524 409.088 230.316 408.216 230.316 407.224V400.6H232.476V407.128C232.476 407.752 232.58 408.296 232.788 408.76C233.012 409.208 233.332 409.552 233.748 409.792C234.164 410.032 234.652 410.152 235.212 410.152C236.06 410.152 236.724 409.888 237.204 409.36C237.684 408.816 237.924 408.072 237.924 407.128V400.6H240.084V407.224C240.084 408.216 239.876 409.088 239.46 409.84C239.044 410.592 238.468 411.184 237.732 411.616C237.012 412.032 236.164 412.24 235.188 412.24ZM246.171 412V395.824H248.331V412H246.171ZM243.363 402.568V400.6H251.139V402.568H243.363ZM261.151 412V400.6H263.311V412H261.151ZM262.231 398.32C261.831 398.32 261.503 398.192 261.247 397.936C260.991 397.664 260.863 397.328 260.863 396.928C260.863 396.544 260.991 396.224 261.247 395.968C261.503 395.696 261.831 395.56 262.231 395.56C262.631 395.56 262.959 395.696 263.215 395.968C263.471 396.224 263.599 396.544 263.599 396.928C263.599 397.328 263.471 397.664 263.215 397.936C262.959 398.192 262.631 398.32 262.231 398.32ZM272.758 412.24C271.702 412.24 270.758 411.984 269.926 411.472C269.094 410.944 268.43 410.232 267.934 409.336C267.454 408.44 267.214 407.432 267.214 406.312C267.214 405.192 267.454 404.184 267.934 403.288C268.43 402.392 269.094 401.68 269.926 401.152C270.758 400.624 271.702 400.36 272.758 400.36C273.606 400.36 274.374 400.544 275.062 400.912C275.75 401.264 276.302 401.76 276.718 402.4C277.15 403.024 277.39 403.752 277.438 404.584V408.016C277.39 408.832 277.158 409.56 276.742 410.2C276.326 410.84 275.774 411.344 275.086 411.712C274.398 412.064 273.622 412.24 272.758 412.24ZM273.118 410.2C273.838 410.2 274.462 410.032 274.99 409.696C275.534 409.36 275.958 408.904 276.262 408.328C276.566 407.736 276.718 407.064 276.718 406.312C276.718 405.528 276.558 404.848 276.238 404.272C275.934 403.696 275.51 403.24 274.966 402.904C274.438 402.568 273.814 402.4 273.094 402.4C272.374 402.4 271.742 402.568 271.198 402.904C270.654 403.24 270.222 403.704 269.902 404.296C269.598 404.872 269.446 405.536 269.446 406.288C269.446 407.056 269.598 407.736 269.902 408.328C270.222 408.904 270.654 409.36 271.198 409.696C271.758 410.032 272.398 410.2 273.118 410.2ZM278.758 412H276.574V408.928L276.982 406.144L276.574 403.384V394.864H278.758V412ZM294.623 412.24C293.583 412.24 292.639 411.984 291.791 411.472C290.943 410.944 290.271 410.232 289.775 409.336C289.295 408.44 289.055 407.432 289.055 406.312C289.055 405.192 289.295 404.184 289.775 403.288C290.271 402.392 290.935 401.68 291.767 401.152C292.615 400.624 293.567 400.36 294.623 400.36C295.487 400.36 296.255 400.544 296.927 400.912C297.615 401.264 298.167 401.76 298.583 402.4C298.999 403.024 299.231 403.752 299.279 404.584V408.016C299.231 408.832 298.999 409.56 298.583 410.2C298.183 410.84 297.639 411.344 296.951 411.712C296.279 412.064 295.503 412.24 294.623 412.24ZM294.983 410.2C296.055 410.2 296.919 409.84 297.575 409.12C298.231 408.384 298.559 407.448 298.559 406.312C298.559 405.528 298.407 404.848 298.103 404.272C297.815 403.68 297.399 403.224 296.855 402.904C296.311 402.568 295.679 402.4 294.959 402.4C294.239 402.4 293.599 402.568 293.039 402.904C292.495 403.24 292.063 403.704 291.743 404.296C291.439 404.872 291.287 405.536 291.287 406.288C291.287 407.056 291.439 407.736 291.743 408.328C292.063 408.904 292.503 409.36 293.063 409.696C293.623 410.032 294.263 410.2 294.983 410.2ZM298.415 412V408.928L298.823 406.144L298.415 403.384V400.6H300.599V412H298.415ZM305.184 412V394.864H307.344V412H305.184ZM311.968 412V400.6H314.128V412H311.968ZM313.048 398.32C312.648 398.32 312.32 398.192 312.064 397.936C311.808 397.664 311.68 397.328 311.68 396.928C311.68 396.544 311.808 396.224 312.064 395.968C312.32 395.696 312.648 395.56 313.048 395.56C313.448 395.56 313.776 395.696 314.032 395.968C314.288 396.224 314.416 396.544 314.416 396.928C314.416 397.328 314.288 397.664 314.032 397.936C313.776 398.192 313.448 398.32 313.048 398.32ZM323.623 412.24C322.567 412.24 321.615 411.984 320.767 411.472C319.919 410.944 319.247 410.232 318.751 409.336C318.271 408.44 318.031 407.432 318.031 406.312C318.031 405.192 318.271 404.184 318.751 403.288C319.247 402.392 319.919 401.68 320.767 401.152C321.615 400.624 322.559 400.36 323.599 400.36C324.479 400.36 325.255 400.544 325.927 400.912C326.615 401.264 327.159 401.76 327.559 402.4C327.975 403.024 328.207 403.752 328.255 404.584V408.016C328.207 408.832 327.975 409.56 327.559 410.2C327.159 410.84 326.615 411.344 325.927 411.712C325.255 412.064 324.487 412.24 323.623 412.24ZM323.959 410.2C325.031 410.2 325.895 409.84 326.551 409.12C327.207 408.384 327.535 407.448 327.535 406.312C327.535 405.528 327.383 404.848 327.079 404.272C326.791 403.68 326.375 403.224 325.831 402.904C325.303 402.568 324.679 402.4 323.959 402.4C323.239 402.4 322.599 402.568 322.039 402.904C321.495 403.24 321.063 403.704 320.743 404.296C320.423 404.872 320.263 405.536 320.263 406.288C320.263 407.056 320.423 407.736 320.743 408.328C321.063 408.904 321.495 409.36 322.039 409.696C322.599 410.032 323.239 410.2 323.959 410.2ZM327.415 416.776V409.144L327.799 406.36L327.415 403.6V400.6H329.575V416.776H327.415ZM338.767 412.24C337.839 412.24 336.999 412.032 336.247 411.616C335.511 411.184 334.935 410.592 334.519 409.84C334.103 409.088 333.895 408.216 333.895 407.224V400.6H336.055V407.128C336.055 407.752 336.159 408.296 336.367 408.76C336.591 409.208 336.911 409.552 337.327 409.792C337.743 410.032 338.231 410.152 338.791 410.152C339.639 410.152 340.303 409.888 340.783 409.36C341.263 408.816 341.503 408.072 341.503 407.128V400.6H343.663V407.224C343.663 408.216 343.455 409.088 343.039 409.84C342.623 410.592 342.047 411.184 341.311 411.616C340.591 412.032 339.743 412.24 338.767 412.24ZM353.278 412.24C352.142 412.24 351.118 411.984 350.206 411.472C349.294 410.944 348.574 410.232 348.046 409.336C347.518 408.44 347.254 407.424 347.254 406.288C347.254 405.168 347.51 404.16 348.022 403.264C348.55 402.368 349.254 401.664 350.134 401.152C351.03 400.624 352.03 400.36 353.134 400.36C354.19 400.36 355.118 400.6 355.918 401.08C356.734 401.56 357.366 402.224 357.814 403.072C358.278 403.92 358.51 404.88 358.51 405.952C358.51 406.112 358.502 406.288 358.486 406.48C358.47 406.656 358.438 406.864 358.39 407.104H348.766V405.304H357.238L356.446 406C356.446 405.232 356.31 404.584 356.038 404.056C355.766 403.512 355.382 403.096 354.886 402.808C354.39 402.504 353.79 402.352 353.086 402.352C352.35 402.352 351.702 402.512 351.142 402.832C350.582 403.152 350.15 403.6 349.846 404.176C349.542 404.752 349.39 405.432 349.39 406.216C349.39 407.016 349.55 407.72 349.87 408.328C350.19 408.92 350.646 409.384 351.238 409.72C351.83 410.04 352.51 410.2 353.278 410.2C353.918 410.2 354.502 410.088 355.03 409.864C355.574 409.64 356.038 409.304 356.422 408.856L357.814 410.272C357.27 410.912 356.598 411.4 355.798 411.736C355.014 412.072 354.174 412.24 353.278 412.24ZM363.706 412V395.824H365.866V412H363.706ZM360.898 402.568V400.6H368.674V402.568H360.898ZM383.51 412.24C382.47 412.24 381.526 411.984 380.678 411.472C379.83 410.944 379.158 410.232 378.662 409.336C378.182 408.44 377.942 407.432 377.942 406.312C377.942 405.192 378.182 404.184 378.662 403.288C379.158 402.392 379.822 401.68 380.654 401.152C381.502 400.624 382.454 400.36 383.51 400.36C384.374 400.36 385.142 400.544 385.814 400.912C386.502 401.264 387.054 401.76 387.47 402.4C387.886 403.024 388.118 403.752 388.166 404.584V408.016C388.118 408.832 387.886 409.56 387.47 410.2C387.07 410.84 386.526 411.344 385.838 411.712C385.166 412.064 384.39 412.24 383.51 412.24ZM383.87 410.2C384.942 410.2 385.806 409.84 386.462 409.12C387.118 408.384 387.446 407.448 387.446 406.312C387.446 405.528 387.294 404.848 386.99 404.272C386.702 403.68 386.286 403.224 385.742 402.904C385.198 402.568 384.566 402.4 383.846 402.4C383.126 402.4 382.486 402.568 381.926 402.904C381.382 403.24 380.95 403.704 380.63 404.296C380.326 404.872 380.174 405.536 380.174 406.288C380.174 407.056 380.326 407.736 380.63 408.328C380.95 408.904 381.39 409.36 381.95 409.696C382.51 410.032 383.15 410.2 383.87 410.2ZM387.302 412V408.928L387.71 406.144L387.302 403.384V400.6H389.486V412H387.302ZM398.655 412.24C397.727 412.24 396.887 412.032 396.135 411.616C395.399 411.184 394.823 410.592 394.407 409.84C393.991 409.088 393.783 408.216 393.783 407.224V400.6H395.943V407.128C395.943 407.752 396.047 408.296 396.255 408.76C396.479 409.208 396.799 409.552 397.215 409.792C397.631 410.032 398.119 410.152 398.679 410.152C399.527 410.152 400.191 409.888 400.671 409.36C401.151 408.816 401.391 408.072 401.391 407.128V400.6H403.551V407.224C403.551 408.216 403.343 409.088 402.927 409.84C402.511 410.592 401.935 411.184 401.199 411.616C400.479 412.032 399.631 412.24 398.655 412.24ZM412.614 417.016C411.446 417.016 410.406 416.8 409.494 416.368C408.598 415.936 407.878 415.328 407.334 414.544L408.726 413.128C409.19 413.72 409.742 414.168 410.382 414.472C411.022 414.792 411.782 414.952 412.662 414.952C413.83 414.952 414.75 414.64 415.422 414.016C416.11 413.408 416.454 412.584 416.454 411.544V408.712L416.838 406.144L416.454 403.6V400.6H418.614V411.544C418.614 412.632 418.358 413.584 417.846 414.4C417.35 415.216 416.646 415.856 415.734 416.32C414.838 416.784 413.798 417.016 412.614 417.016ZM412.614 411.808C411.574 411.808 410.638 411.56 409.806 411.064C408.99 410.568 408.342 409.888 407.862 409.024C407.382 408.144 407.142 407.16 407.142 406.072C407.142 404.984 407.382 404.016 407.862 403.168C408.342 402.304 408.99 401.624 409.806 401.128C410.638 400.616 411.574 400.36 412.614 400.36C413.51 400.36 414.302 400.536 414.99 400.888C415.678 401.24 416.222 401.736 416.622 402.376C417.038 403 417.262 403.736 417.294 404.584V407.608C417.246 408.44 417.014 409.176 416.598 409.816C416.198 410.44 415.654 410.928 414.966 411.28C414.278 411.632 413.494 411.808 412.614 411.808ZM413.046 409.768C413.75 409.768 414.366 409.616 414.894 409.312C415.438 409.008 415.854 408.584 416.142 408.04C416.43 407.48 416.574 406.832 416.574 406.096C416.574 405.36 416.422 404.72 416.118 404.176C415.83 403.616 415.422 403.184 414.894 402.88C414.366 402.56 413.742 402.4 413.022 402.4C412.302 402.4 411.67 402.56 411.126 402.88C410.582 403.184 410.15 403.616 409.83 404.176C409.526 404.72 409.374 405.352 409.374 406.072C409.374 406.792 409.526 407.432 409.83 407.992C410.15 408.552 410.582 408.992 411.126 409.312C411.686 409.616 412.326 409.768 413.046 409.768ZM427.808 412.24C426.88 412.24 426.04 412.032 425.288 411.616C424.552 411.184 423.976 410.592 423.56 409.84C423.144 409.088 422.936 408.216 422.936 407.224V400.6H425.096V407.128C425.096 407.752 425.2 408.296 425.408 408.76C425.632 409.208 425.952 409.552 426.368 409.792C426.784 410.032 427.272 410.152 427.832 410.152C428.68 410.152 429.344 409.888 429.824 409.36C430.304 408.816 430.544 408.072 430.544 407.128V400.6H432.704V407.224C432.704 408.216 432.496 409.088 432.08 409.84C431.664 410.592 431.088 411.184 430.352 411.616C429.632 412.032 428.784 412.24 427.808 412.24ZM442.319 412.24C441.183 412.24 440.159 411.984 439.247 411.472C438.335 410.944 437.615 410.232 437.087 409.336C436.559 408.44 436.295 407.424 436.295 406.288C436.295 405.168 436.551 404.16 437.063 403.264C437.591 402.368 438.295 401.664 439.175 401.152C440.071 400.624 441.071 400.36 442.175 400.36C443.231 400.36 444.159 400.6 444.959 401.08C445.775 401.56 446.407 402.224 446.855 403.072C447.319 403.92 447.551 404.88 447.551 405.952C447.551 406.112 447.543 406.288 447.527 406.48C447.511 406.656 447.479 406.864 447.431 407.104H437.807V405.304H446.279L445.487 406C445.487 405.232 445.351 404.584 445.079 404.056C444.807 403.512 444.423 403.096 443.927 402.808C443.431 402.504 442.831 402.352 442.127 402.352C441.391 402.352 440.743 402.512 440.183 402.832C439.623 403.152 439.191 403.6 438.887 404.176C438.583 404.752 438.431 405.432 438.431 406.216C438.431 407.016 438.591 407.72 438.911 408.328C439.231 408.92 439.687 409.384 440.279 409.72C440.871 410.04 441.551 410.2 442.319 410.2C442.959 410.2 443.543 410.088 444.071 409.864C444.615 409.64 445.079 409.304 445.463 408.856L446.855 410.272C446.311 410.912 445.639 411.4 444.839 411.736C444.055 412.072 443.215 412.24 442.319 412.24ZM453.243 412.24C452.795 412.24 452.419 412.088 452.115 411.784C451.827 411.464 451.683 411.088 451.683 410.656C451.683 410.208 451.827 409.84 452.115 409.552C452.419 409.248 452.795 409.096 453.243 409.096C453.691 409.096 454.059 409.248 454.347 409.552C454.651 409.84 454.803 410.208 454.803 410.656C454.803 411.088 454.651 411.464 454.347 411.784C454.059 412.088 453.691 412.24 453.243 412.24Z" fill="#302E2E"/>
</svg>
