<svg width="104" height="52" viewBox="0 0 104 52" fill="none" xmlns="http://www.w3.org/2000/svg">
<path d="M18.2803 37.1777C25.4768 26.724 35.2791 16.9443 47.3515 12.4254C51.0191 11.0461 56.0507 9.98932 59.4827 12.5293C63.8768 15.873 62.2504 25.9158 56.1922 26.4417C52.9047 26.7011 51.0372 23.1485 52.0485 20.3343C52.5576 18.6688 53.7918 17.3477 55.2056 16.2418C67.0753 6.49011 84.6462 2.35 98.9043 9.29406" stroke="#302E2E" stroke-width="2.7411" stroke-miterlimit="10" stroke-linecap="round" stroke-linejoin="round"/>
<path d="M27.9506 41.598C24.0817 42.1232 10.6538 50.1813 6.87823 50.5558C7.60265 48.7107 8.05428 46.8012 8.62794 44.8629C9.26611 42.6518 9.50947 40.405 9.63081 38.1869" stroke="#302E2E" stroke-width="2.7411" stroke-miterlimit="10" stroke-linecap="round" stroke-linejoin="round"/>
</svg>
