<svg width="1435" height="2358" viewBox="0 0 1435 2358" fill="none" xmlns="http://www.w3.org/2000/svg">
<path d="M1 406.784C230.571 680.958 354.318 1042.56 425.686 1338.38C485.18 1585 484.124 1685.89 547.297 1869.89C684.389 2269.17 947.003 2544.5 1074.28 2201.38C1136.98 2032.36 1113.79 1818.16 1143.77 1412.67C1170.75 1047.91 1240.51 546.224 1435.26 1" stroke="#050505" stroke-opacity="0.24" stroke-miterlimit="10"/>
<path d="M1.46094 495.241C224.757 730.873 347.266 1071.05 418.597 1347.9C478.616 1580.91 483.496 1674.09 550.598 1854.93C691.361 2234.29 937.99 2498.4 1065.45 2178.24C1131.1 2013.35 1116.16 1802.82 1151.3 1398.52C1182.24 1042.57 1253.42 549.471 1444.81 9.13672" stroke="#050505" stroke-opacity="0.24" stroke-miterlimit="10"/>
<path d="M1.91797 583.686C218.934 780.787 340.301 1099.63 411.517 1357.42C472.186 1577.04 482.757 1662.3 553.907 1839.96C698.031 2199.85 929.365 2452.91 1056.63 2155.12C1125.37 1994.23 1118.44 1787.68 1158.84 1384.37C1193.61 1037.34 1266.34 552.754 1454.38 17.334" stroke="#050505" stroke-opacity="0.24" stroke-miterlimit="10"/>
<path d="M2.37891 672.145C213.116 830.716 333.46 1128.3 404.44 1367.02C465.838 1573.4 481.902 1650.59 557.236 1824.98C704.436 2165.9 921.117 2408.1 1047.82 2131.98C1119.81 1975.11 1120.62 1772.72 1166.4 1370.22C1204.84 1032.18 1279.27 556.038 1463.95 25.4961" stroke="#050505" stroke-opacity="0.24" stroke-miterlimit="10"/>
<path d="M2.83594 760.594C207.315 880.61 326.757 1156.97 397.36 1376.48C459.593 1569.96 480.972 1639 560.52 1810.02C710.539 2132.46 913.163 2364.04 1038.97 2108.84C1114.35 1955.96 1122.64 1757.85 1173.91 1356.07C1215.9 1027.05 1292.17 559.314 1473.48 33.7227" stroke="#050505" stroke-opacity="0.24" stroke-miterlimit="10"/>
<path d="M3.29688 849.037C201.48 930.523 320.21 1185.64 390.283 1386C453.485 1566.72 479.898 1627.58 563.833 1795.04C716.443 2099.56 905.54 2320.71 1030.15 2085.72C1109.05 1936.91 1124.52 1743.06 1181.45 1341.91C1226.84 1021.9 1305.09 562.595 1483.04 41.8203" stroke="#050505" stroke-opacity="0.24" stroke-miterlimit="10"/>
<path d="M3.75391 937.487C195.658 980.38 313.841 1214.2 383.203 1395.53C447.514 1563.66 478.749 1616.35 567.138 1780.08C722.153 2067.21 898.186 2278.18 1021.32 2062.58C1103.87 1918.04 1126.32 1728.27 1188.98 1327.77C1237.66 1016.7 1318.03 565.883 1492.6 49.998" stroke="#050505" stroke-opacity="0.24" stroke-miterlimit="10"/>
<path d="M4.23438 1025.94C189.859 1030.34 307.695 1242.62 376.145 1405.05C441.732 1560.69 477.557 1605.37 570.466 1765.12C727.716 2035.41 891.105 2236.41 1012.52 2039.44C1098.84 1899.4 1127.97 1713.45 1196.54 1313.61C1248.35 1011.45 1330.93 569.202 1502.16 58.1582" stroke="#050505" stroke-opacity="0.24" stroke-miterlimit="10"/>
<path d="M4.67578 1114.39C184.021 1080.26 301.724 1270.76 369.049 1414.58C436.105 1557.77 476.223 1594.73 573.76 1750.14C733.121 2004.14 884.203 2195.42 1003.67 2016.31C1093.91 1881.06 1129.45 1698.51 1204.06 1299.45C1258.92 1006.08 1343.85 572.436 1511.75 66.3184" stroke="#050505" stroke-opacity="0.24" stroke-miterlimit="10"/>
<path d="M5.13281 1202.8C178.203 1130.14 295.989 1298.51 361.969 1424.07C430.651 1554.76 474.854 1584.22 577.064 1735.14C738.404 1973.36 877.474 2155.15 994.847 1993.14C1089.08 1863.08 1130.82 1683.39 1211.6 1285.26C1269.37 1000.54 1356.77 575.685 1521.28 74.4453" stroke="#050505" stroke-opacity="0.24" stroke-miterlimit="10"/>
<path d="M5.59375 1291.29C172.405 1180.09 290.481 1325.86 354.896 1433.62C425.421 1551.62 473.44 1574.16 580.377 1720.2C743.621 1943.15 870.907 2115.7 986.023 1970.05C1084.36 1845.62 1132.05 1668.13 1219.14 1271.14C1279.73 994.923 1369.69 579.004 1530.84 82.666" stroke="#050505" stroke-opacity="0.24" stroke-miterlimit="10"/>
<path d="M6.05078 1379.74C166.562 1229.99 285.181 1352.59 347.816 1443.15C420.385 1548.08 471.993 1564.4 583.682 1705.24C748.772 1913.38 864.455 2076.92 977.196 1946.91C1079.73 1828.69 1133.15 1652.59 1226.67 1257C1290 989.102 1382.61 582.277 1540.4 90.8164" stroke="#050505" stroke-opacity="0.24" stroke-miterlimit="10"/>
<path d="M6.51172 1468.2C160.744 1279.91 280.066 1378.64 340.739 1452.69C415.543 1543.98 470.48 1554.98 586.995 1690.28C753.885 1884.07 858.091 2038.82 968.377 1923.78C1075.17 1812.38 1134.14 1636.77 1234.21 1242.85C1300.2 983.103 1395.53 585.567 1549.96 98.9844" stroke="#050505" stroke-opacity="0.24" stroke-miterlimit="10"/>
<path d="M6.97266 1556.65C154.93 1329.83 275.105 1403.92 333.662 1462.21C410.872 1539.06 468.958 1545.91 590.295 1675.3C758.961 1855.16 851.776 2001.29 959.545 1900.65C1070.7 1796.79 1135 1620.61 1241.74 1228.7C1310.33 976.888 1408.45 588.813 1559.52 107.182" stroke="#050505" stroke-opacity="0.24" stroke-miterlimit="10"/>
<path d="M7.42969 1645.09C149.108 1379.73 270.239 1428.38 326.565 1471.73C406.304 1533.08 467.399 1537.18 593.596 1660.33C764.03 1826.65 845.482 1964.49 950.709 1877.51C1066.26 1782.01 1135.76 1604.08 1249.27 1214.5C1320.39 970.425 1421.35 592.081 1569.06 115.266" stroke="#050505" stroke-opacity="0.24" stroke-miterlimit="10"/>
<path d="M7.89062 1733.55C143.31 1429.65 265.418 1452.01 319.505 1481.25C401.835 1525.76 465.865 1528.82 596.922 1645.36C769.114 1798.55 839.216 1928.2 941.903 1854.39C1061.88 1768.12 1136.45 1587.22 1256.82 1200.4C1330.45 963.823 1434.29 595.406 1578.64 123.48" stroke="#050505" stroke-opacity="0.24" stroke-miterlimit="10"/>
<path d="M8.37109 1822C137.491 1479.56 261.155 1519.14 312.448 1490.79C396.347 1444.39 464.334 1520.8 600.254 1630.4C774.226 1770.71 832.908 1892.45 933.078 1831.25C1057.5 1755.27 1137.04 1569.86 1264.36 1186.24C1340.45 956.995 1447.21 598.688 1588.2 131.689" stroke="#050505" stroke-opacity="0.24" stroke-miterlimit="10"/>
<path d="M8.80859 1910.44C131.653 1529.47 256.791 1533.48 305.348 1500.31C390.455 1442.17 462.759 1513.11 603.539 1615.43C779.354 1743.26 826.524 1857.23 924.252 1808.11C1053.11 1743.43 1137.56 1552.12 1271.9 1172.06C1350.43 949.911 1460.12 601.935 1597.76 139.777" stroke="#050505" stroke-opacity="0.24" stroke-miterlimit="10"/>
<path d="M9.27344 1998.9C125.839 1579.38 251.862 1546.41 298.275 1509.83C384.914 1441.56 461.221 1505.78 606.856 1600.52C784.516 1716.04 820.069 1822.41 915.433 1785.05C1048.69 1732.83 1138.03 1534.01 1279.44 1158C1360.4 942.732 1473.05 605.283 1607.32 148.027" stroke="#050505" stroke-opacity="0.24" stroke-miterlimit="10"/>
<path d="M9.73047 2087.35C120.016 1629.29 244.86 1539.54 291.199 1519.35C382.473 1479.68 459.699 1498.74 610.165 1585.53C789.725 1689.05 813.493 1787.95 906.609 1761.88C1044.19 1723.33 1138.44 1515.31 1286.99 1143.78C1370.37 935.192 1485.98 608.528 1616.88 156.125" stroke="#050505" stroke-opacity="0.24" stroke-miterlimit="10"/>
<path d="M10.1914 2175.8C114.198 1679.21 239.092 1560.35 284.118 1528.89C376.692 1464.22 458.19 1492.03 613.47 1570.56C794.971 1662.31 806.772 1753.87 897.782 1738.75C1039.6 1715.19 1138.82 1496.34 1294.52 1129.66C1380.34 927.537 1498.89 611.841 1626.44 164.328" stroke="#050505" stroke-opacity="0.24" stroke-miterlimit="10"/>
<path d="M10.6484 2264.26C108.38 1729.13 232.926 1581.18 277.038 1538.41C370.378 1447.87 456.706 1485.61 616.779 1555.57C800.275 1635.77 799.89 1720.06 888.959 1715.6C1034.87 1708.25 1139.17 1476.85 1302.06 1115.5C1390.32 919.707 1511.8 615.09 1636 172.467" stroke="#050505" stroke-opacity="0.24" stroke-miterlimit="10"/>
</svg>
